<?xml version="1.0" encoding="UTF-8" standalone="no"?>
<!DOCTYPE svg PUBLIC "-//W3C//DTD SVG 1.1//EN"
 "http://www.w3.org/Graphics/SVG/1.1/DTD/svg11.dtd">
<!-- Generated by graphviz version 2.47.0 (20210316.0004)
 -->
<!-- Title: dependencies Pages: 1 -->
<svg width="1477pt" height="211pt"
 viewBox="0.00 0.00 1477.00 211.00" xmlns="http://www.w3.org/2000/svg" xmlns:xlink="http://www.w3.org/1999/xlink">
<g id="graph0" class="graph" transform="scale(1 1) rotate(0) translate(4 207)">
<title>dependencies</title>
<polygon fill="white" stroke="transparent" points="-4,4 -4,-207 1473,-207 1473,4 -4,4"/>
<text text-anchor="start" x="713.51" y="-42.4" font-family="Times-12" font-weight="bold" font-size="14.00">Legend</text>
<polygon fill="#ffffb3" stroke="transparent" points="500.5,-10 500.5,-30 520.5,-30 520.5,-10 500.5,-10"/>
<text text-anchor="start" x="524.13" y="-15.4" font-family="Times-12" font-size="14.00"> &#160;Declarations</text>
<polygon fill="#8dd3c7" stroke="transparent" points="613.5,-10 613.5,-30 633.5,-30 633.5,-10 613.5,-10"/>
<text text-anchor="start" x="637.23" y="-15.4" font-family="Times-12" font-size="14.00"> &#160;Module</text>
<polygon fill="#80b1d3" stroke="transparent" points="699.5,-10 699.5,-30 719.5,-30 719.5,-10 699.5,-10"/>
<text text-anchor="start" x="723.28" y="-15.4" font-family="Times-12" font-size="14.00"> &#160;Bootstrap</text>
<polygon fill="#fdb462" stroke="transparent" points="796.5,-10 796.5,-30 816.5,-30 816.5,-10 796.5,-10"/>
<text text-anchor="start" x="820.17" y="-15.4" font-family="Times-12" font-size="14.00"> &#160;Providers</text>
<polygon fill="#fb8072" stroke="transparent" points="892.5,-10 892.5,-30 912.5,-30 912.5,-10 892.5,-10"/>
<text text-anchor="start" x="916.23" y="-15.4" font-family="Times-12" font-size="14.00"> &#160;Exports</text>
<g id="clust1" class="cluster">
<title>cluster_HomePageModule</title>
<polygon fill="none" stroke="black" stroke-dasharray="1,5" points="8,-70 8,-195 1461,-195 1461,-70 8,-70"/>
</g>
<g id="clust8" class="cluster">
<title>cluster_HomePageModule_providers</title>
<polygon fill="none" stroke="black" points="963,-78 963,-130 1453,-130 1453,-78 963,-78"/>
</g>
<g id="clust2" class="cluster">
<title>cluster_HomePageModule_declarations</title>
<polygon fill="none" stroke="black" points="701,-78 701,-130 955,-130 955,-78 701,-78"/>
</g>
<g id="clust5" class="cluster">
<title>cluster_HomePageModule_imports</title>
<polygon fill="none" stroke="black" points="16,-78 16,-130 693,-130 693,-78 16,-78"/>
</g>
<!-- HomePage -->
<g id="node1" class="node">
<title>HomePage</title>
<polygon fill="#ffffb3" stroke="black" points="946.92,-122 869.08,-122 869.08,-86 946.92,-86 946.92,-122"/>
<text text-anchor="middle" x="908" y="-99.8" font-family="Times,serif" font-size="14.00">HomePage</text>
</g>
<!-- HomePageModule -->
<g id="node3" class="node">
<title>HomePageModule</title>
<polygon fill="#8dd3c7" stroke="black" points="642.47,-187 639.47,-191 618.47,-191 615.47,-187 521.53,-187 521.53,-151 642.47,-151 642.47,-187"/>
<text text-anchor="middle" x="582" y="-164.8" font-family="Times,serif" font-size="14.00">HomePageModule</text>
</g>
<!-- HomePage&#45;&gt;HomePageModule -->
<g id="edge1" class="edge">
<title>HomePage&#45;&gt;HomePageModule</title>
<path fill="none" stroke="black" d="M908,-122.11C908,-141.34 908,-169 908,-169 908,-169 652.55,-169 652.55,-169"/>
<polygon fill="black" stroke="black" points="652.55,-165.5 642.55,-169 652.55,-172.5 652.55,-165.5"/>
</g>
<!-- ClickOutsideDirective -->
<g id="node2" class="node">
<title>ClickOutsideDirective</title>
<polygon fill="#ffffb3" stroke="black" points="850.96,-122 709.04,-122 709.04,-86 850.96,-86 850.96,-122"/>
<text text-anchor="middle" x="780" y="-99.8" font-family="Times,serif" font-size="14.00">ClickOutsideDirective</text>
</g>
<!-- ClickOutsideDirective&#45;&gt;HomePageModule -->
<g id="edge2" class="edge">
<title>ClickOutsideDirective&#45;&gt;HomePageModule</title>
<path fill="none" stroke="black" d="M780,-122.03C780,-138.4 780,-160 780,-160 780,-160 652.48,-160 652.48,-160"/>
<polygon fill="black" stroke="black" points="652.48,-156.5 642.48,-160 652.48,-163.5 652.48,-156.5"/>
</g>
<!-- IonicModule -->
<g id="node4" class="node">
<title>IonicModule</title>
<polygon fill="#8dd3c7" stroke="black" points="685.32,-122 682.32,-126 661.32,-126 658.32,-122 596.68,-122 596.68,-86 685.32,-86 685.32,-122"/>
<text text-anchor="middle" x="641" y="-99.8" font-family="Times,serif" font-size="14.00">IonicModule</text>
</g>
<!-- IonicModule&#45;&gt;HomePageModule -->
<g id="edge3" class="edge">
<title>IonicModule&#45;&gt;HomePageModule</title>
<path fill="none" stroke="black" d="M619.66,-122.11C619.66,-122.11 619.66,-140.99 619.66,-140.99"/>
<polygon fill="black" stroke="black" points="616.16,-140.99 619.66,-150.99 623.16,-140.99 616.16,-140.99"/>
</g>
<!-- CommonModule -->
<g id="node5" class="node">
<title>CommonModule</title>
<polygon fill="#8dd3c7" stroke="black" points="578.67,-122 575.67,-126 554.67,-126 551.67,-122 467.33,-122 467.33,-86 578.67,-86 578.67,-122"/>
<text text-anchor="middle" x="523" y="-99.8" font-family="Times,serif" font-size="14.00">CommonModule</text>
</g>
<!-- CommonModule&#45;&gt;HomePageModule -->
<g id="edge4" class="edge">
<title>CommonModule&#45;&gt;HomePageModule</title>
<path fill="none" stroke="black" d="M550.17,-122.11C550.17,-122.11 550.17,-140.99 550.17,-140.99"/>
<polygon fill="black" stroke="black" points="546.67,-140.99 550.17,-150.99 553.67,-140.99 546.67,-140.99"/>
</g>
<!-- FormsModule -->
<g id="node6" class="node">
<title>FormsModule</title>
<polygon fill="#8dd3c7" stroke="black" points="449.83,-122 446.83,-126 425.83,-126 422.83,-122 354.17,-122 354.17,-86 449.83,-86 449.83,-122"/>
<text text-anchor="middle" x="402" y="-99.8" font-family="Times,serif" font-size="14.00">FormsModule</text>
</g>
<!-- FormsModule&#45;&gt;HomePageModule -->
<g id="edge5" class="edge">
<title>FormsModule&#45;&gt;HomePageModule</title>
<path fill="none" stroke="black" d="M402,-122.03C402,-138.4 402,-160 402,-160 402,-160 511.31,-160 511.31,-160"/>
<polygon fill="black" stroke="black" points="511.31,-163.5 521.31,-160 511.31,-156.5 511.31,-163.5"/>
</g>
<!-- HomePageRoutingModule -->
<g id="node7" class="node">
<title>HomePageRoutingModule</title>
<polygon fill="#8dd3c7" stroke="black" points="336.09,-122 333.09,-126 312.09,-126 309.09,-122 169.91,-122 169.91,-86 336.09,-86 336.09,-122"/>
<text text-anchor="middle" x="253" y="-99.8" font-family="Times,serif" font-size="14.00">HomePageRoutingModule</text>
</g>
<!-- HomePageRoutingModule&#45;&gt;HomePageModule -->
<g id="edge6" class="edge">
<title>HomePageRoutingModule&#45;&gt;HomePageModule</title>
<path fill="none" stroke="black" d="M253,-122.11C253,-141.34 253,-169 253,-169 253,-169 511.27,-169 511.27,-169"/>
<polygon fill="black" stroke="black" points="511.27,-172.5 521.27,-169 511.27,-165.5 511.27,-172.5"/>
</g>
<!-- NgOptimizedImage -->
<g id="node8" class="node">
<title>NgOptimizedImage</title>
<polygon fill="#8dd3c7" stroke="black" points="151.69,-122 148.69,-126 127.69,-126 124.69,-122 24.31,-122 24.31,-86 151.69,-86 151.69,-122"/>
<text text-anchor="middle" x="88" y="-99.8" font-family="Times,serif" font-size="14.00">NgOptimizedImage</text>
</g>
<!-- NgOptimizedImage&#45;&gt;HomePageModule -->
<g id="edge7" class="edge">
<title>NgOptimizedImage&#45;&gt;HomePageModule</title>
<path fill="none" stroke="black" d="M88,-122.29C88,-144.21 88,-178 88,-178 88,-178 511.43,-178 511.43,-178"/>
<polygon fill="black" stroke="black" points="511.43,-181.5 521.43,-178 511.43,-174.5 511.43,-181.5"/>
</g>
<!-- { provide: IMAGE_LOADER, useValue: (config) =&gt; {} } -->
<g id="node9" class="node">
<title>{ provide: IMAGE_LOADER, useValue: (config) =&gt; {} }</title>
<ellipse fill="#fdb462" stroke="black" cx="1208" cy="-104" rx="237.09" ry="18"/>
<text text-anchor="middle" x="1208" y="-99.8" font-family="Times,serif" font-size="14.00">{ provide: IMAGE_LOADER, useValue: (config) =&gt; {} }</text>
</g>
<!-- { provide: IMAGE_LOADER, useValue: (config) =&gt; {} }&#45;&gt;HomePageModule -->
<g id="edge8" class="edge">
<title>{ provide: IMAGE_LOADER, useValue: (config) =&gt; {} }&#45;&gt;HomePageModule</title>
<path fill="none" stroke="black" d="M1208,-122.29C1208,-144.21 1208,-178 1208,-178 1208,-178 652.59,-178 652.59,-178"/>
<polygon fill="black" stroke="black" points="652.59,-174.5 642.59,-178 652.59,-181.5 652.59,-174.5"/>
</g>
</g>
</svg>
