<?xml version="1.0" encoding="UTF-8" standalone="no"?>
<!DOCTYPE svg PUBLIC "-//W3C//DTD SVG 1.1//EN"
 "http://www.w3.org/Graphics/SVG/1.1/DTD/svg11.dtd">
<!-- Generated by graphviz version 2.47.0 (20210316.0004)
 -->
<!-- Title: dependencies Pages: 1 -->
<svg width="973pt" height="211pt"
 viewBox="0.00 0.00 973.00 211.00" xmlns="http://www.w3.org/2000/svg" xmlns:xlink="http://www.w3.org/1999/xlink">
<g id="graph0" class="graph" transform="scale(1 1) rotate(0) translate(4 207)">
<title>dependencies</title>
<polygon fill="white" stroke="transparent" points="-4,4 -4,-207 969,-207 969,4 -4,4"/>
<text text-anchor="start" x="461.51" y="-42.4" font-family="Times-12" font-weight="bold" font-size="14.00">Legend</text>
<polygon fill="#ffffb3" stroke="transparent" points="248.5,-10 248.5,-30 268.5,-30 268.5,-10 248.5,-10"/>
<text text-anchor="start" x="272.13" y="-15.4" font-family="Times-12" font-size="14.00"> &#160;Declarations</text>
<polygon fill="#8dd3c7" stroke="transparent" points="361.5,-10 361.5,-30 381.5,-30 381.5,-10 361.5,-10"/>
<text text-anchor="start" x="385.23" y="-15.4" font-family="Times-12" font-size="14.00"> &#160;Module</text>
<polygon fill="#80b1d3" stroke="transparent" points="447.5,-10 447.5,-30 467.5,-30 467.5,-10 447.5,-10"/>
<text text-anchor="start" x="471.28" y="-15.4" font-family="Times-12" font-size="14.00"> &#160;Bootstrap</text>
<polygon fill="#fdb462" stroke="transparent" points="544.5,-10 544.5,-30 564.5,-30 564.5,-10 544.5,-10"/>
<text text-anchor="start" x="568.17" y="-15.4" font-family="Times-12" font-size="14.00"> &#160;Providers</text>
<polygon fill="#fb8072" stroke="transparent" points="640.5,-10 640.5,-30 660.5,-30 660.5,-10 640.5,-10"/>
<text text-anchor="start" x="664.23" y="-15.4" font-family="Times-12" font-size="14.00"> &#160;Exports</text>
<g id="clust1" class="cluster">
<title>cluster_UpdateUserModalPageModule</title>
<polygon fill="none" stroke="black" stroke-dasharray="1,5" points="8,-70 8,-195 957,-195 957,-70 8,-70"/>
</g>
<g id="clust4" class="cluster">
<title>cluster_UpdateUserModalPageModule_imports</title>
<polygon fill="none" stroke="black" points="186,-78 186,-130 949,-130 949,-78 186,-78"/>
</g>
<g id="clust2" class="cluster">
<title>cluster_UpdateUserModalPageModule_declarations</title>
<polygon fill="none" stroke="black" points="16,-78 16,-130 178,-130 178,-78 16,-78"/>
</g>
<!-- UpdateUserModalPage -->
<g id="node1" class="node">
<title>UpdateUserModalPage</title>
<polygon fill="#ffffb3" stroke="black" points="170.11,-122 23.89,-122 23.89,-86 170.11,-86 170.11,-122"/>
<text text-anchor="middle" x="97" y="-99.8" font-family="Times,serif" font-size="14.00">UpdateUserModalPage</text>
</g>
<!-- UpdateUserModalPageModule -->
<g id="node2" class="node">
<title>UpdateUserModalPageModule</title>
<polygon fill="#8dd3c7" stroke="black" points="682.16,-187 679.16,-191 658.16,-191 655.16,-187 491.84,-187 491.84,-151 682.16,-151 682.16,-187"/>
<text text-anchor="middle" x="587" y="-164.8" font-family="Times,serif" font-size="14.00">UpdateUserModalPageModule</text>
</g>
<!-- UpdateUserModalPage&#45;&gt;UpdateUserModalPageModule -->
<g id="edge1" class="edge">
<title>UpdateUserModalPage&#45;&gt;UpdateUserModalPageModule</title>
<path fill="none" stroke="black" d="M97,-122.28C97,-143.32 97,-175 97,-175 97,-175 481.65,-175 481.65,-175"/>
<polygon fill="black" stroke="black" points="481.65,-178.5 491.65,-175 481.65,-171.5 481.65,-178.5"/>
</g>
<!-- CommonModule -->
<g id="node3" class="node">
<title>CommonModule</title>
<polygon fill="#8dd3c7" stroke="black" points="940.67,-122 937.67,-126 916.67,-126 913.67,-122 829.33,-122 829.33,-86 940.67,-86 940.67,-122"/>
<text text-anchor="middle" x="885" y="-99.8" font-family="Times,serif" font-size="14.00">CommonModule</text>
</g>
<!-- CommonModule&#45;&gt;UpdateUserModalPageModule -->
<g id="edge2" class="edge">
<title>CommonModule&#45;&gt;UpdateUserModalPageModule</title>
<path fill="none" stroke="black" d="M885,-122.28C885,-143.32 885,-175 885,-175 885,-175 692.11,-175 692.11,-175"/>
<polygon fill="black" stroke="black" points="692.11,-171.5 682.11,-175 692.11,-178.5 692.11,-171.5"/>
</g>
<!-- FormsModule -->
<g id="node4" class="node">
<title>FormsModule</title>
<polygon fill="#8dd3c7" stroke="black" points="811.83,-122 808.83,-126 787.83,-126 784.83,-122 716.17,-122 716.17,-86 811.83,-86 811.83,-122"/>
<text text-anchor="middle" x="764" y="-99.8" font-family="Times,serif" font-size="14.00">FormsModule</text>
</g>
<!-- FormsModule&#45;&gt;UpdateUserModalPageModule -->
<g id="edge3" class="edge">
<title>FormsModule&#45;&gt;UpdateUserModalPageModule</title>
<path fill="none" stroke="black" d="M764,-122.02C764,-139.37 764,-163 764,-163 764,-163 692.24,-163 692.24,-163"/>
<polygon fill="black" stroke="black" points="692.24,-159.5 682.24,-163 692.24,-166.5 692.24,-159.5"/>
</g>
<!-- IonicModule -->
<g id="node5" class="node">
<title>IonicModule</title>
<polygon fill="#8dd3c7" stroke="black" points="698.32,-122 695.32,-126 674.32,-126 671.32,-122 609.68,-122 609.68,-86 698.32,-86 698.32,-122"/>
<text text-anchor="middle" x="654" y="-99.8" font-family="Times,serif" font-size="14.00">IonicModule</text>
</g>
<!-- IonicModule&#45;&gt;UpdateUserModalPageModule -->
<g id="edge4" class="edge">
<title>IonicModule&#45;&gt;UpdateUserModalPageModule</title>
<path fill="none" stroke="black" d="M645.96,-122.11C645.96,-122.11 645.96,-140.99 645.96,-140.99"/>
<polygon fill="black" stroke="black" points="642.46,-140.99 645.96,-150.99 649.46,-140.99 642.46,-140.99"/>
</g>
<!-- ReactiveFormsModule -->
<g id="node6" class="node">
<title>ReactiveFormsModule</title>
<polygon fill="#8dd3c7" stroke="black" points="592.3,-122 589.3,-126 568.3,-126 565.3,-122 447.7,-122 447.7,-86 592.3,-86 592.3,-122"/>
<text text-anchor="middle" x="520" y="-99.8" font-family="Times,serif" font-size="14.00">ReactiveFormsModule</text>
</g>
<!-- ReactiveFormsModule&#45;&gt;UpdateUserModalPageModule -->
<g id="edge5" class="edge">
<title>ReactiveFormsModule&#45;&gt;UpdateUserModalPageModule</title>
<path fill="none" stroke="black" d="M542.04,-122.11C542.04,-122.11 542.04,-140.99 542.04,-140.99"/>
<polygon fill="black" stroke="black" points="538.54,-140.99 542.04,-150.99 545.54,-140.99 538.54,-140.99"/>
</g>
<!-- UpdateUserModalPageRoutingModule -->
<g id="node7" class="node">
<title>UpdateUserModalPageRoutingModule</title>
<polygon fill="#8dd3c7" stroke="black" points="429.78,-122 426.78,-126 405.78,-126 402.78,-122 194.22,-122 194.22,-86 429.78,-86 429.78,-122"/>
<text text-anchor="middle" x="312" y="-99.8" font-family="Times,serif" font-size="14.00">UpdateUserModalPageRoutingModule</text>
</g>
<!-- UpdateUserModalPageRoutingModule&#45;&gt;UpdateUserModalPageModule -->
<g id="edge6" class="edge">
<title>UpdateUserModalPageRoutingModule&#45;&gt;UpdateUserModalPageModule</title>
<path fill="none" stroke="black" d="M312,-122.02C312,-139.37 312,-163 312,-163 312,-163 481.59,-163 481.59,-163"/>
<polygon fill="black" stroke="black" points="481.59,-166.5 491.59,-163 481.59,-159.5 481.59,-166.5"/>
</g>
</g>
</svg>
