<?xml version="1.0" encoding="UTF-8" standalone="no"?>
<!DOCTYPE svg PUBLIC "-//W3C//DTD SVG 1.1//EN"
 "http://www.w3.org/Graphics/SVG/1.1/DTD/svg11.dtd">
<!-- Generated by graphviz version 2.47.0 (20210316.0004)
 -->
<!-- Title: dependencies Pages: 1 -->
<svg width="658pt" height="211pt"
 viewBox="0.00 0.00 658.00 211.00" xmlns="http://www.w3.org/2000/svg" xmlns:xlink="http://www.w3.org/1999/xlink">
<g id="graph0" class="graph" transform="scale(1 1) rotate(0) translate(4 207)">
<title>dependencies</title>
<polygon fill="white" stroke="transparent" points="-4,4 -4,-207 654,-207 654,4 -4,4"/>
<text text-anchor="start" x="304.01" y="-42.4" font-family="Times-12" font-weight="bold" font-size="14.00">Legend</text>
<polygon fill="#ffffb3" stroke="transparent" points="91,-10 91,-30 111,-30 111,-10 91,-10"/>
<text text-anchor="start" x="114.63" y="-15.4" font-family="Times-12" font-size="14.00"> &#160;Declarations</text>
<polygon fill="#8dd3c7" stroke="transparent" points="204,-10 204,-30 224,-30 224,-10 204,-10"/>
<text text-anchor="start" x="227.73" y="-15.4" font-family="Times-12" font-size="14.00"> &#160;Module</text>
<polygon fill="#80b1d3" stroke="transparent" points="290,-10 290,-30 310,-30 310,-10 290,-10"/>
<text text-anchor="start" x="313.78" y="-15.4" font-family="Times-12" font-size="14.00"> &#160;Bootstrap</text>
<polygon fill="#fdb462" stroke="transparent" points="387,-10 387,-30 407,-30 407,-10 387,-10"/>
<text text-anchor="start" x="410.67" y="-15.4" font-family="Times-12" font-size="14.00"> &#160;Providers</text>
<polygon fill="#fb8072" stroke="transparent" points="483,-10 483,-30 503,-30 503,-10 483,-10"/>
<text text-anchor="start" x="506.73" y="-15.4" font-family="Times-12" font-size="14.00"> &#160;Exports</text>
<g id="clust1" class="cluster">
<title>cluster_TabsPageModule</title>
<polygon fill="none" stroke="black" stroke-dasharray="1,5" points="8,-70 8,-195 642,-195 642,-70 8,-70"/>
</g>
<g id="clust2" class="cluster">
<title>cluster_TabsPageModule_declarations</title>
<polygon fill="none" stroke="black" points="548,-78 548,-130 634,-130 634,-78 548,-78"/>
</g>
<g id="clust4" class="cluster">
<title>cluster_TabsPageModule_imports</title>
<polygon fill="none" stroke="black" points="16,-78 16,-130 540,-130 540,-78 16,-78"/>
</g>
<!-- TabsPage -->
<g id="node1" class="node">
<title>TabsPage</title>
<polygon fill="#ffffb3" stroke="black" points="626.42,-122 555.58,-122 555.58,-86 626.42,-86 626.42,-122"/>
<text text-anchor="middle" x="591" y="-99.8" font-family="Times,serif" font-size="14.00">TabsPage</text>
</g>
<!-- TabsPageModule -->
<g id="node2" class="node">
<title>TabsPageModule</title>
<polygon fill="#8dd3c7" stroke="black" points="426.97,-187 423.97,-191 402.97,-191 399.97,-187 313.03,-187 313.03,-151 426.97,-151 426.97,-187"/>
<text text-anchor="middle" x="370" y="-164.8" font-family="Times,serif" font-size="14.00">TabsPageModule</text>
</g>
<!-- TabsPage&#45;&gt;TabsPageModule -->
<g id="edge1" class="edge">
<title>TabsPage&#45;&gt;TabsPageModule</title>
<path fill="none" stroke="black" d="M591,-122.28C591,-143.32 591,-175 591,-175 591,-175 437.2,-175 437.2,-175"/>
<polygon fill="black" stroke="black" points="437.2,-171.5 427.2,-175 437.2,-178.5 437.2,-171.5"/>
</g>
<!-- IonicModule -->
<g id="node3" class="node">
<title>IonicModule</title>
<polygon fill="#8dd3c7" stroke="black" points="532.32,-122 529.32,-126 508.32,-126 505.32,-122 443.68,-122 443.68,-86 532.32,-86 532.32,-122"/>
<text text-anchor="middle" x="488" y="-99.8" font-family="Times,serif" font-size="14.00">IonicModule</text>
</g>
<!-- IonicModule&#45;&gt;TabsPageModule -->
<g id="edge2" class="edge">
<title>IonicModule&#45;&gt;TabsPageModule</title>
<path fill="none" stroke="black" d="M488,-122.02C488,-139.37 488,-163 488,-163 488,-163 437.27,-163 437.27,-163"/>
<polygon fill="black" stroke="black" points="437.27,-159.5 427.27,-163 437.27,-166.5 437.27,-159.5"/>
</g>
<!-- CommonModule -->
<g id="node4" class="node">
<title>CommonModule</title>
<polygon fill="#8dd3c7" stroke="black" points="425.67,-122 422.67,-126 401.67,-126 398.67,-122 314.33,-122 314.33,-86 425.67,-86 425.67,-122"/>
<text text-anchor="middle" x="370" y="-99.8" font-family="Times,serif" font-size="14.00">CommonModule</text>
</g>
<!-- CommonModule&#45;&gt;TabsPageModule -->
<g id="edge3" class="edge">
<title>CommonModule&#45;&gt;TabsPageModule</title>
<path fill="none" stroke="black" d="M370,-122.11C370,-122.11 370,-140.99 370,-140.99"/>
<polygon fill="black" stroke="black" points="366.5,-140.99 370,-150.99 373.5,-140.99 366.5,-140.99"/>
</g>
<!-- FormsModule -->
<g id="node5" class="node">
<title>FormsModule</title>
<polygon fill="#8dd3c7" stroke="black" points="296.83,-122 293.83,-126 272.83,-126 269.83,-122 201.17,-122 201.17,-86 296.83,-86 296.83,-122"/>
<text text-anchor="middle" x="249" y="-99.8" font-family="Times,serif" font-size="14.00">FormsModule</text>
</g>
<!-- FormsModule&#45;&gt;TabsPageModule -->
<g id="edge4" class="edge">
<title>FormsModule&#45;&gt;TabsPageModule</title>
<path fill="none" stroke="black" d="M249,-122.02C249,-139.37 249,-163 249,-163 249,-163 302.69,-163 302.69,-163"/>
<polygon fill="black" stroke="black" points="302.69,-166.5 312.69,-163 302.69,-159.5 302.69,-166.5"/>
</g>
<!-- TabsPageRoutingModule -->
<g id="node6" class="node">
<title>TabsPageRoutingModule</title>
<polygon fill="#8dd3c7" stroke="black" points="183.59,-122 180.59,-126 159.59,-126 156.59,-122 24.41,-122 24.41,-86 183.59,-86 183.59,-122"/>
<text text-anchor="middle" x="104" y="-99.8" font-family="Times,serif" font-size="14.00">TabsPageRoutingModule</text>
</g>
<!-- TabsPageRoutingModule&#45;&gt;TabsPageModule -->
<g id="edge5" class="edge">
<title>TabsPageRoutingModule&#45;&gt;TabsPageModule</title>
<path fill="none" stroke="black" d="M104,-122.28C104,-143.32 104,-175 104,-175 104,-175 302.94,-175 302.94,-175"/>
<polygon fill="black" stroke="black" points="302.94,-178.5 312.94,-175 302.94,-171.5 302.94,-178.5"/>
</g>
</g>
</svg>
