<?xml version="1.0" encoding="UTF-8" standalone="no"?>
<!DOCTYPE svg PUBLIC "-//W3C//DTD SVG 1.1//EN"
 "http://www.w3.org/Graphics/SVG/1.1/DTD/svg11.dtd">
<!-- Generated by graphviz version 2.47.0 (20210316.0004)
 -->
<!-- Title: dependencies Pages: 1 -->
<svg width="833pt" height="211pt"
 viewBox="0.00 0.00 833.00 211.00" xmlns="http://www.w3.org/2000/svg" xmlns:xlink="http://www.w3.org/1999/xlink">
<g id="graph0" class="graph" transform="scale(1 1) rotate(0) translate(4 207)">
<title>dependencies</title>
<polygon fill="white" stroke="transparent" points="-4,4 -4,-207 829,-207 829,4 -4,4"/>
<text text-anchor="start" x="391.51" y="-42.4" font-family="Times-12" font-weight="bold" font-size="14.00">Legend</text>
<polygon fill="#ffffb3" stroke="transparent" points="178.5,-10 178.5,-30 198.5,-30 198.5,-10 178.5,-10"/>
<text text-anchor="start" x="202.13" y="-15.4" font-family="Times-12" font-size="14.00"> &#160;Declarations</text>
<polygon fill="#8dd3c7" stroke="transparent" points="291.5,-10 291.5,-30 311.5,-30 311.5,-10 291.5,-10"/>
<text text-anchor="start" x="315.23" y="-15.4" font-family="Times-12" font-size="14.00"> &#160;Module</text>
<polygon fill="#80b1d3" stroke="transparent" points="377.5,-10 377.5,-30 397.5,-30 397.5,-10 377.5,-10"/>
<text text-anchor="start" x="401.28" y="-15.4" font-family="Times-12" font-size="14.00"> &#160;Bootstrap</text>
<polygon fill="#fdb462" stroke="transparent" points="474.5,-10 474.5,-30 494.5,-30 494.5,-10 474.5,-10"/>
<text text-anchor="start" x="498.17" y="-15.4" font-family="Times-12" font-size="14.00"> &#160;Providers</text>
<polygon fill="#fb8072" stroke="transparent" points="570.5,-10 570.5,-30 590.5,-30 590.5,-10 570.5,-10"/>
<text text-anchor="start" x="594.23" y="-15.4" font-family="Times-12" font-size="14.00"> &#160;Exports</text>
<g id="clust1" class="cluster">
<title>cluster_LoginPageModule</title>
<polygon fill="none" stroke="black" stroke-dasharray="1,5" points="8,-70 8,-195 817,-195 817,-70 8,-70"/>
</g>
<g id="clust2" class="cluster">
<title>cluster_LoginPageModule_declarations</title>
<polygon fill="none" stroke="black" points="717,-78 717,-130 809,-130 809,-78 717,-78"/>
</g>
<g id="clust4" class="cluster">
<title>cluster_LoginPageModule_imports</title>
<polygon fill="none" stroke="black" points="16,-78 16,-130 709,-130 709,-78 16,-78"/>
</g>
<!-- LoginPage -->
<g id="node1" class="node">
<title>LoginPage</title>
<polygon fill="#ffffb3" stroke="black" points="801.16,-122 724.84,-122 724.84,-86 801.16,-86 801.16,-122"/>
<text text-anchor="middle" x="763" y="-99.8" font-family="Times,serif" font-size="14.00">LoginPage</text>
</g>
<!-- LoginPageModule -->
<g id="node2" class="node">
<title>LoginPageModule</title>
<polygon fill="#8dd3c7" stroke="black" points="529.2,-187 526.2,-191 505.2,-191 502.2,-187 408.8,-187 408.8,-151 529.2,-151 529.2,-187"/>
<text text-anchor="middle" x="469" y="-164.8" font-family="Times,serif" font-size="14.00">LoginPageModule</text>
</g>
<!-- LoginPage&#45;&gt;LoginPageModule -->
<g id="edge1" class="edge">
<title>LoginPage&#45;&gt;LoginPageModule</title>
<path fill="none" stroke="black" d="M763,-122.28C763,-143.32 763,-175 763,-175 763,-175 539.2,-175 539.2,-175"/>
<polygon fill="black" stroke="black" points="539.2,-171.5 529.2,-175 539.2,-178.5 539.2,-171.5"/>
</g>
<!-- CommonModule -->
<g id="node3" class="node">
<title>CommonModule</title>
<polygon fill="#8dd3c7" stroke="black" points="700.67,-122 697.67,-126 676.67,-126 673.67,-122 589.33,-122 589.33,-86 700.67,-86 700.67,-122"/>
<text text-anchor="middle" x="645" y="-99.8" font-family="Times,serif" font-size="14.00">CommonModule</text>
</g>
<!-- CommonModule&#45;&gt;LoginPageModule -->
<g id="edge2" class="edge">
<title>CommonModule&#45;&gt;LoginPageModule</title>
<path fill="none" stroke="black" d="M645,-122.02C645,-139.37 645,-163 645,-163 645,-163 539.57,-163 539.57,-163"/>
<polygon fill="black" stroke="black" points="539.57,-159.5 529.57,-163 539.57,-166.5 539.57,-159.5"/>
</g>
<!-- FormsModule -->
<g id="node4" class="node">
<title>FormsModule</title>
<polygon fill="#8dd3c7" stroke="black" points="571.83,-122 568.83,-126 547.83,-126 544.83,-122 476.17,-122 476.17,-86 571.83,-86 571.83,-122"/>
<text text-anchor="middle" x="524" y="-99.8" font-family="Times,serif" font-size="14.00">FormsModule</text>
</g>
<!-- FormsModule&#45;&gt;LoginPageModule -->
<g id="edge3" class="edge">
<title>FormsModule&#45;&gt;LoginPageModule</title>
<path fill="none" stroke="black" d="M502.72,-122.11C502.72,-122.11 502.72,-140.99 502.72,-140.99"/>
<polygon fill="black" stroke="black" points="499.22,-140.99 502.72,-150.99 506.22,-140.99 499.22,-140.99"/>
</g>
<!-- IonicModule -->
<g id="node5" class="node">
<title>IonicModule</title>
<polygon fill="#8dd3c7" stroke="black" points="458.32,-122 455.32,-126 434.32,-126 431.32,-122 369.68,-122 369.68,-86 458.32,-86 458.32,-122"/>
<text text-anchor="middle" x="414" y="-99.8" font-family="Times,serif" font-size="14.00">IonicModule</text>
</g>
<!-- IonicModule&#45;&gt;LoginPageModule -->
<g id="edge4" class="edge">
<title>IonicModule&#45;&gt;LoginPageModule</title>
<path fill="none" stroke="black" d="M433.53,-122.11C433.53,-122.11 433.53,-140.99 433.53,-140.99"/>
<polygon fill="black" stroke="black" points="430.03,-140.99 433.53,-150.99 437.03,-140.99 430.03,-140.99"/>
</g>
<!-- LoginPageRoutingModule -->
<g id="node6" class="node">
<title>LoginPageRoutingModule</title>
<polygon fill="#8dd3c7" stroke="black" points="351.82,-122 348.82,-126 327.82,-126 324.82,-122 186.18,-122 186.18,-86 351.82,-86 351.82,-122"/>
<text text-anchor="middle" x="269" y="-99.8" font-family="Times,serif" font-size="14.00">LoginPageRoutingModule</text>
</g>
<!-- LoginPageRoutingModule&#45;&gt;LoginPageModule -->
<g id="edge5" class="edge">
<title>LoginPageRoutingModule&#45;&gt;LoginPageModule</title>
<path fill="none" stroke="black" d="M269,-122.02C269,-139.37 269,-163 269,-163 269,-163 398.72,-163 398.72,-163"/>
<polygon fill="black" stroke="black" points="398.72,-166.5 408.72,-163 398.72,-159.5 398.72,-166.5"/>
</g>
<!-- ReactiveFormsModule -->
<g id="node7" class="node">
<title>ReactiveFormsModule</title>
<polygon fill="#8dd3c7" stroke="black" points="168.3,-122 165.3,-126 144.3,-126 141.3,-122 23.7,-122 23.7,-86 168.3,-86 168.3,-122"/>
<text text-anchor="middle" x="96" y="-99.8" font-family="Times,serif" font-size="14.00">ReactiveFormsModule</text>
</g>
<!-- ReactiveFormsModule&#45;&gt;LoginPageModule -->
<g id="edge6" class="edge">
<title>ReactiveFormsModule&#45;&gt;LoginPageModule</title>
<path fill="none" stroke="black" d="M96,-122.28C96,-143.32 96,-175 96,-175 96,-175 398.66,-175 398.66,-175"/>
<polygon fill="black" stroke="black" points="398.66,-178.5 408.66,-175 398.66,-171.5 398.66,-178.5"/>
</g>
</g>
</svg>
