<?xml version="1.0" encoding="UTF-8" standalone="no"?>
<!DOCTYPE svg PUBLIC "-//W3C//DTD SVG 1.1//EN"
 "http://www.w3.org/Graphics/SVG/1.1/DTD/svg11.dtd">
<!-- Generated by graphviz version 2.47.0 (20210316.0004)
 -->
<!-- Title: dependencies Pages: 1 -->
<svg width="909pt" height="211pt"
 viewBox="0.00 0.00 909.00 211.00" xmlns="http://www.w3.org/2000/svg" xmlns:xlink="http://www.w3.org/1999/xlink">
<g id="graph0" class="graph" transform="scale(1 1) rotate(0) translate(4 207)">
<title>dependencies</title>
<polygon fill="white" stroke="transparent" points="-4,4 -4,-207 905,-207 905,4 -4,4"/>
<text text-anchor="start" x="429.51" y="-42.4" font-family="Times-12" font-weight="bold" font-size="14.00">Legend</text>
<polygon fill="#ffffb3" stroke="transparent" points="216.5,-10 216.5,-30 236.5,-30 236.5,-10 216.5,-10"/>
<text text-anchor="start" x="240.13" y="-15.4" font-family="Times-12" font-size="14.00"> &#160;Declarations</text>
<polygon fill="#8dd3c7" stroke="transparent" points="329.5,-10 329.5,-30 349.5,-30 349.5,-10 329.5,-10"/>
<text text-anchor="start" x="353.23" y="-15.4" font-family="Times-12" font-size="14.00"> &#160;Module</text>
<polygon fill="#80b1d3" stroke="transparent" points="415.5,-10 415.5,-30 435.5,-30 435.5,-10 415.5,-10"/>
<text text-anchor="start" x="439.28" y="-15.4" font-family="Times-12" font-size="14.00"> &#160;Bootstrap</text>
<polygon fill="#fdb462" stroke="transparent" points="512.5,-10 512.5,-30 532.5,-30 532.5,-10 512.5,-10"/>
<text text-anchor="start" x="536.17" y="-15.4" font-family="Times-12" font-size="14.00"> &#160;Providers</text>
<polygon fill="#fb8072" stroke="transparent" points="608.5,-10 608.5,-30 628.5,-30 628.5,-10 608.5,-10"/>
<text text-anchor="start" x="632.23" y="-15.4" font-family="Times-12" font-size="14.00"> &#160;Exports</text>
<g id="clust1" class="cluster">
<title>cluster_LogoutConfirmationModalPageModule</title>
<polygon fill="none" stroke="black" stroke-dasharray="1,5" points="8,-70 8,-195 893,-195 893,-70 8,-70"/>
</g>
<g id="clust4" class="cluster">
<title>cluster_LogoutConfirmationModalPageModule_imports</title>
<polygon fill="none" stroke="black" points="236,-78 236,-130 885,-130 885,-78 236,-78"/>
</g>
<g id="clust2" class="cluster">
<title>cluster_LogoutConfirmationModalPageModule_declarations</title>
<polygon fill="none" stroke="black" points="16,-78 16,-130 228,-130 228,-78 16,-78"/>
</g>
<!-- LogoutConfirmationModalPage -->
<g id="node1" class="node">
<title>LogoutConfirmationModalPage</title>
<polygon fill="#ffffb3" stroke="black" points="219.64,-122 24.36,-122 24.36,-86 219.64,-86 219.64,-122"/>
<text text-anchor="middle" x="122" y="-99.8" font-family="Times,serif" font-size="14.00">LogoutConfirmationModalPage</text>
</g>
<!-- LogoutConfirmationModalPageModule -->
<g id="node2" class="node">
<title>LogoutConfirmationModalPageModule</title>
<polygon fill="#8dd3c7" stroke="black" points="709.69,-187 706.69,-191 685.69,-191 682.69,-187 470.31,-187 470.31,-151 709.69,-151 709.69,-187"/>
<text text-anchor="middle" x="590" y="-164.8" font-family="Times,serif" font-size="14.00">LogoutConfirmationModalPageModule</text>
</g>
<!-- LogoutConfirmationModalPage&#45;&gt;LogoutConfirmationModalPageModule -->
<g id="edge1" class="edge">
<title>LogoutConfirmationModalPage&#45;&gt;LogoutConfirmationModalPageModule</title>
<path fill="none" stroke="black" d="M122,-122.11C122,-141.34 122,-169 122,-169 122,-169 460.39,-169 460.39,-169"/>
<polygon fill="black" stroke="black" points="460.39,-172.5 470.39,-169 460.39,-165.5 460.39,-172.5"/>
</g>
<!-- CommonModule -->
<g id="node3" class="node">
<title>CommonModule</title>
<polygon fill="#8dd3c7" stroke="black" points="876.67,-122 873.67,-126 852.67,-126 849.67,-122 765.33,-122 765.33,-86 876.67,-86 876.67,-122"/>
<text text-anchor="middle" x="821" y="-99.8" font-family="Times,serif" font-size="14.00">CommonModule</text>
</g>
<!-- CommonModule&#45;&gt;LogoutConfirmationModalPageModule -->
<g id="edge2" class="edge">
<title>CommonModule&#45;&gt;LogoutConfirmationModalPageModule</title>
<path fill="none" stroke="black" d="M821,-122.11C821,-141.34 821,-169 821,-169 821,-169 719.9,-169 719.9,-169"/>
<polygon fill="black" stroke="black" points="719.9,-165.5 709.9,-169 719.9,-172.5 719.9,-165.5"/>
</g>
<!-- FormsModule -->
<g id="node4" class="node">
<title>FormsModule</title>
<polygon fill="#8dd3c7" stroke="black" points="747.83,-122 744.83,-126 723.83,-126 720.83,-122 652.17,-122 652.17,-86 747.83,-86 747.83,-122"/>
<text text-anchor="middle" x="700" y="-99.8" font-family="Times,serif" font-size="14.00">FormsModule</text>
</g>
<!-- FormsModule&#45;&gt;LogoutConfirmationModalPageModule -->
<g id="edge3" class="edge">
<title>FormsModule&#45;&gt;LogoutConfirmationModalPageModule</title>
<path fill="none" stroke="black" d="M680.97,-122.11C680.97,-122.11 680.97,-140.99 680.97,-140.99"/>
<polygon fill="black" stroke="black" points="677.47,-140.99 680.97,-150.99 684.47,-140.99 677.47,-140.99"/>
</g>
<!-- IonicModule -->
<g id="node5" class="node">
<title>IonicModule</title>
<polygon fill="#8dd3c7" stroke="black" points="634.32,-122 631.32,-126 610.32,-126 607.32,-122 545.68,-122 545.68,-86 634.32,-86 634.32,-122"/>
<text text-anchor="middle" x="590" y="-99.8" font-family="Times,serif" font-size="14.00">IonicModule</text>
</g>
<!-- IonicModule&#45;&gt;LogoutConfirmationModalPageModule -->
<g id="edge4" class="edge">
<title>IonicModule&#45;&gt;LogoutConfirmationModalPageModule</title>
<path fill="none" stroke="black" d="M590,-122.11C590,-122.11 590,-140.99 590,-140.99"/>
<polygon fill="black" stroke="black" points="586.5,-140.99 590,-150.99 593.5,-140.99 586.5,-140.99"/>
</g>
<!-- LogoutConfirmationModalPageRoutingModule -->
<g id="node6" class="node">
<title>LogoutConfirmationModalPageRoutingModule</title>
<polygon fill="#8dd3c7" stroke="black" points="528.31,-122 525.31,-126 504.31,-126 501.31,-122 243.69,-122 243.69,-86 528.31,-86 528.31,-122"/>
<text text-anchor="middle" x="386" y="-99.8" font-family="Times,serif" font-size="14.00">LogoutConfirmationModalPageRoutingModule</text>
</g>
<!-- LogoutConfirmationModalPageRoutingModule&#45;&gt;LogoutConfirmationModalPageModule -->
<g id="edge5" class="edge">
<title>LogoutConfirmationModalPageRoutingModule&#45;&gt;LogoutConfirmationModalPageModule</title>
<path fill="none" stroke="black" d="M499.28,-122.11C499.28,-122.11 499.28,-140.99 499.28,-140.99"/>
<polygon fill="black" stroke="black" points="495.78,-140.99 499.28,-150.99 502.78,-140.99 495.78,-140.99"/>
</g>
</g>
</svg>
