<?xml version="1.0" encoding="UTF-8" standalone="no"?>
<!DOCTYPE svg PUBLIC "-//W3C//DTD SVG 1.1//EN"
 "http://www.w3.org/Graphics/SVG/1.1/DTD/svg11.dtd">
<!-- Generated by graphviz version 2.47.0 (20210316.0004)
 -->
<!-- Title: dependencies Pages: 1 -->
<svg width="681pt" height="211pt"
 viewBox="0.00 0.00 681.00 211.00" xmlns="http://www.w3.org/2000/svg" xmlns:xlink="http://www.w3.org/1999/xlink">
<g id="graph0" class="graph" transform="scale(1 1) rotate(0) translate(4 207)">
<title>dependencies</title>
<polygon fill="white" stroke="transparent" points="-4,4 -4,-207 677,-207 677,4 -4,4"/>
<text text-anchor="start" x="315.51" y="-42.4" font-family="Times-12" font-weight="bold" font-size="14.00">Legend</text>
<polygon fill="#ffffb3" stroke="transparent" points="102.5,-10 102.5,-30 122.5,-30 122.5,-10 102.5,-10"/>
<text text-anchor="start" x="126.13" y="-15.4" font-family="Times-12" font-size="14.00"> &#160;Declarations</text>
<polygon fill="#8dd3c7" stroke="transparent" points="215.5,-10 215.5,-30 235.5,-30 235.5,-10 215.5,-10"/>
<text text-anchor="start" x="239.23" y="-15.4" font-family="Times-12" font-size="14.00"> &#160;Module</text>
<polygon fill="#80b1d3" stroke="transparent" points="301.5,-10 301.5,-30 321.5,-30 321.5,-10 301.5,-10"/>
<text text-anchor="start" x="325.28" y="-15.4" font-family="Times-12" font-size="14.00"> &#160;Bootstrap</text>
<polygon fill="#fdb462" stroke="transparent" points="398.5,-10 398.5,-30 418.5,-30 418.5,-10 398.5,-10"/>
<text text-anchor="start" x="422.17" y="-15.4" font-family="Times-12" font-size="14.00"> &#160;Providers</text>
<polygon fill="#fb8072" stroke="transparent" points="494.5,-10 494.5,-30 514.5,-30 514.5,-10 494.5,-10"/>
<text text-anchor="start" x="518.23" y="-15.4" font-family="Times-12" font-size="14.00"> &#160;Exports</text>
<g id="clust1" class="cluster">
<title>cluster_ProfilePageModule</title>
<polygon fill="none" stroke="black" stroke-dasharray="1,5" points="8,-70 8,-195 665,-195 665,-70 8,-70"/>
</g>
<g id="clust4" class="cluster">
<title>cluster_ProfilePageModule_imports</title>
<polygon fill="none" stroke="black" points="122,-78 122,-130 657,-130 657,-78 122,-78"/>
</g>
<g id="clust2" class="cluster">
<title>cluster_ProfilePageModule_declarations</title>
<polygon fill="none" stroke="black" points="16,-78 16,-130 114,-130 114,-78 16,-78"/>
</g>
<!-- ProfilePage -->
<g id="node1" class="node">
<title>ProfilePage</title>
<polygon fill="#ffffb3" stroke="black" points="105.81,-122 24.19,-122 24.19,-86 105.81,-86 105.81,-122"/>
<text text-anchor="middle" x="65" y="-99.8" font-family="Times,serif" font-size="14.00">ProfilePage</text>
</g>
<!-- ProfilePageModule -->
<g id="node2" class="node">
<title>ProfilePageModule</title>
<polygon fill="#8dd3c7" stroke="black" points="428.36,-187 425.36,-191 404.36,-191 401.36,-187 303.64,-187 303.64,-151 428.36,-151 428.36,-187"/>
<text text-anchor="middle" x="366" y="-164.8" font-family="Times,serif" font-size="14.00">ProfilePageModule</text>
</g>
<!-- ProfilePage&#45;&gt;ProfilePageModule -->
<g id="edge1" class="edge">
<title>ProfilePage&#45;&gt;ProfilePageModule</title>
<path fill="none" stroke="black" d="M65,-122.11C65,-141.34 65,-169 65,-169 65,-169 293.63,-169 293.63,-169"/>
<polygon fill="black" stroke="black" points="293.63,-172.5 303.63,-169 293.63,-165.5 293.63,-172.5"/>
</g>
<!-- IonicModule -->
<g id="node3" class="node">
<title>IonicModule</title>
<polygon fill="#8dd3c7" stroke="black" points="649.32,-122 646.32,-126 625.32,-126 622.32,-122 560.68,-122 560.68,-86 649.32,-86 649.32,-122"/>
<text text-anchor="middle" x="605" y="-99.8" font-family="Times,serif" font-size="14.00">IonicModule</text>
</g>
<!-- IonicModule&#45;&gt;ProfilePageModule -->
<g id="edge2" class="edge">
<title>IonicModule&#45;&gt;ProfilePageModule</title>
<path fill="none" stroke="black" d="M605,-122.11C605,-141.34 605,-169 605,-169 605,-169 438.48,-169 438.48,-169"/>
<polygon fill="black" stroke="black" points="438.48,-165.5 428.48,-169 438.48,-172.5 438.48,-165.5"/>
</g>
<!-- CommonModule -->
<g id="node4" class="node">
<title>CommonModule</title>
<polygon fill="#8dd3c7" stroke="black" points="542.67,-122 539.67,-126 518.67,-126 515.67,-122 431.33,-122 431.33,-86 542.67,-86 542.67,-122"/>
<text text-anchor="middle" x="487" y="-99.8" font-family="Times,serif" font-size="14.00">CommonModule</text>
</g>
<!-- CommonModule&#45;&gt;ProfilePageModule -->
<g id="edge3" class="edge">
<title>CommonModule&#45;&gt;ProfilePageModule</title>
<path fill="none" stroke="black" d="M431.06,-104C425.04,-104 421.05,-104 421.05,-104 421.05,-104 421.05,-140.89 421.05,-140.89"/>
<polygon fill="black" stroke="black" points="417.55,-140.89 421.05,-150.89 424.55,-140.89 417.55,-140.89"/>
</g>
<!-- FormsModule -->
<g id="node5" class="node">
<title>FormsModule</title>
<polygon fill="#8dd3c7" stroke="black" points="413.83,-122 410.83,-126 389.83,-126 386.83,-122 318.17,-122 318.17,-86 413.83,-86 413.83,-122"/>
<text text-anchor="middle" x="366" y="-99.8" font-family="Times,serif" font-size="14.00">FormsModule</text>
</g>
<!-- FormsModule&#45;&gt;ProfilePageModule -->
<g id="edge4" class="edge">
<title>FormsModule&#45;&gt;ProfilePageModule</title>
<path fill="none" stroke="black" d="M366,-122.11C366,-122.11 366,-140.99 366,-140.99"/>
<polygon fill="black" stroke="black" points="362.5,-140.99 366,-150.99 369.5,-140.99 362.5,-140.99"/>
</g>
<!-- ProfilePageRoutingModule -->
<g id="node6" class="node">
<title>ProfilePageRoutingModule</title>
<polygon fill="#8dd3c7" stroke="black" points="299.98,-122 296.98,-126 275.98,-126 272.98,-122 130.02,-122 130.02,-86 299.98,-86 299.98,-122"/>
<text text-anchor="middle" x="215" y="-99.8" font-family="Times,serif" font-size="14.00">ProfilePageRoutingModule</text>
</g>
<!-- ProfilePageRoutingModule&#45;&gt;ProfilePageModule -->
<g id="edge5" class="edge">
<title>ProfilePageRoutingModule&#45;&gt;ProfilePageModule</title>
<path fill="none" stroke="black" d="M300.32,-104C306.84,-104 310.95,-104 310.95,-104 310.95,-104 310.95,-140.89 310.95,-140.89"/>
<polygon fill="black" stroke="black" points="307.45,-140.89 310.95,-150.89 314.45,-140.89 307.45,-140.89"/>
</g>
</g>
</svg>
