<?xml version="1.0" encoding="UTF-8" standalone="no"?>
<!DOCTYPE svg PUBLIC "-//W3C//DTD SVG 1.1//EN"
 "http://www.w3.org/Graphics/SVG/1.1/DTD/svg11.dtd">
<!-- Generated by graphviz version 2.47.0 (20210316.0004)
 -->
<!-- Title: dependencies Pages: 1 -->
<svg width="659pt" height="211pt"
 viewBox="0.00 0.00 659.00 211.00" xmlns="http://www.w3.org/2000/svg" xmlns:xlink="http://www.w3.org/1999/xlink">
<g id="graph0" class="graph" transform="scale(1 1) rotate(0) translate(4 207)">
<title>dependencies</title>
<polygon fill="white" stroke="transparent" points="-4,4 -4,-207 655,-207 655,4 -4,4"/>
<text text-anchor="start" x="304.51" y="-42.4" font-family="Times-12" font-weight="bold" font-size="14.00">Legend</text>
<polygon fill="#ffffb3" stroke="transparent" points="91.5,-10 91.5,-30 111.5,-30 111.5,-10 91.5,-10"/>
<text text-anchor="start" x="115.13" y="-15.4" font-family="Times-12" font-size="14.00"> &#160;Declarations</text>
<polygon fill="#8dd3c7" stroke="transparent" points="204.5,-10 204.5,-30 224.5,-30 224.5,-10 204.5,-10"/>
<text text-anchor="start" x="228.23" y="-15.4" font-family="Times-12" font-size="14.00"> &#160;Module</text>
<polygon fill="#80b1d3" stroke="transparent" points="290.5,-10 290.5,-30 310.5,-30 310.5,-10 290.5,-10"/>
<text text-anchor="start" x="314.28" y="-15.4" font-family="Times-12" font-size="14.00"> &#160;Bootstrap</text>
<polygon fill="#fdb462" stroke="transparent" points="387.5,-10 387.5,-30 407.5,-30 407.5,-10 387.5,-10"/>
<text text-anchor="start" x="411.17" y="-15.4" font-family="Times-12" font-size="14.00"> &#160;Providers</text>
<polygon fill="#fb8072" stroke="transparent" points="483.5,-10 483.5,-30 503.5,-30 503.5,-10 483.5,-10"/>
<text text-anchor="start" x="507.23" y="-15.4" font-family="Times-12" font-size="14.00"> &#160;Exports</text>
<g id="clust1" class="cluster">
<title>cluster_IntroPageModule</title>
<polygon fill="none" stroke="black" stroke-dasharray="1,5" points="8,-70 8,-195 643,-195 643,-70 8,-70"/>
</g>
<g id="clust2" class="cluster">
<title>cluster_IntroPageModule_declarations</title>
<polygon fill="none" stroke="black" points="549,-78 549,-130 635,-130 635,-78 549,-78"/>
</g>
<g id="clust4" class="cluster">
<title>cluster_IntroPageModule_imports</title>
<polygon fill="none" stroke="black" points="16,-78 16,-130 541,-130 541,-78 16,-78"/>
</g>
<!-- IntroPage -->
<g id="node1" class="node">
<title>IntroPage</title>
<polygon fill="#ffffb3" stroke="black" points="627.42,-122 556.58,-122 556.58,-86 627.42,-86 627.42,-122"/>
<text text-anchor="middle" x="592" y="-99.8" font-family="Times,serif" font-size="14.00">IntroPage</text>
</g>
<!-- IntroPageModule -->
<g id="node2" class="node">
<title>IntroPageModule</title>
<polygon fill="#8dd3c7" stroke="black" points="412.97,-187 409.97,-191 388.97,-191 385.97,-187 299.03,-187 299.03,-151 412.97,-151 412.97,-187"/>
<text text-anchor="middle" x="356" y="-164.8" font-family="Times,serif" font-size="14.00">IntroPageModule</text>
</g>
<!-- IntroPage&#45;&gt;IntroPageModule -->
<g id="edge1" class="edge">
<title>IntroPage&#45;&gt;IntroPageModule</title>
<path fill="none" stroke="black" d="M592,-122.11C592,-141.34 592,-169 592,-169 592,-169 423.13,-169 423.13,-169"/>
<polygon fill="black" stroke="black" points="423.13,-165.5 413.13,-169 423.13,-172.5 423.13,-165.5"/>
</g>
<!-- CommonModule -->
<g id="node3" class="node">
<title>CommonModule</title>
<polygon fill="#8dd3c7" stroke="black" points="532.67,-122 529.67,-126 508.67,-126 505.67,-122 421.33,-122 421.33,-86 532.67,-86 532.67,-122"/>
<text text-anchor="middle" x="477" y="-99.8" font-family="Times,serif" font-size="14.00">CommonModule</text>
</g>
<!-- CommonModule&#45;&gt;IntroPageModule -->
<g id="edge2" class="edge">
<title>CommonModule&#45;&gt;IntroPageModule</title>
<path fill="none" stroke="black" d="M421.24,-104C413.61,-104 408.33,-104 408.33,-104 408.33,-104 408.33,-140.89 408.33,-140.89"/>
<polygon fill="black" stroke="black" points="404.83,-140.89 408.33,-150.89 411.83,-140.89 404.83,-140.89"/>
</g>
<!-- FormsModule -->
<g id="node4" class="node">
<title>FormsModule</title>
<polygon fill="#8dd3c7" stroke="black" points="403.83,-122 400.83,-126 379.83,-126 376.83,-122 308.17,-122 308.17,-86 403.83,-86 403.83,-122"/>
<text text-anchor="middle" x="356" y="-99.8" font-family="Times,serif" font-size="14.00">FormsModule</text>
</g>
<!-- FormsModule&#45;&gt;IntroPageModule -->
<g id="edge3" class="edge">
<title>FormsModule&#45;&gt;IntroPageModule</title>
<path fill="none" stroke="black" d="M356,-122.11C356,-122.11 356,-140.99 356,-140.99"/>
<polygon fill="black" stroke="black" points="352.5,-140.99 356,-150.99 359.5,-140.99 352.5,-140.99"/>
</g>
<!-- IonicModule -->
<g id="node5" class="node">
<title>IonicModule</title>
<polygon fill="#8dd3c7" stroke="black" points="290.32,-122 287.32,-126 266.32,-126 263.32,-122 201.68,-122 201.68,-86 290.32,-86 290.32,-122"/>
<text text-anchor="middle" x="246" y="-99.8" font-family="Times,serif" font-size="14.00">IonicModule</text>
</g>
<!-- IonicModule&#45;&gt;IntroPageModule -->
<g id="edge4" class="edge">
<title>IonicModule&#45;&gt;IntroPageModule</title>
<path fill="none" stroke="black" d="M290.3,-104C298.04,-104 303.67,-104 303.67,-104 303.67,-104 303.67,-140.89 303.67,-140.89"/>
<polygon fill="black" stroke="black" points="300.17,-140.89 303.67,-150.89 307.17,-140.89 300.17,-140.89"/>
</g>
<!-- IntroPageRoutingModule -->
<g id="node6" class="node">
<title>IntroPageRoutingModule</title>
<polygon fill="#8dd3c7" stroke="black" points="183.59,-122 180.59,-126 159.59,-126 156.59,-122 24.41,-122 24.41,-86 183.59,-86 183.59,-122"/>
<text text-anchor="middle" x="104" y="-99.8" font-family="Times,serif" font-size="14.00">IntroPageRoutingModule</text>
</g>
<!-- IntroPageRoutingModule&#45;&gt;IntroPageModule -->
<g id="edge5" class="edge">
<title>IntroPageRoutingModule&#45;&gt;IntroPageModule</title>
<path fill="none" stroke="black" d="M104,-122.11C104,-141.34 104,-169 104,-169 104,-169 288.82,-169 288.82,-169"/>
<polygon fill="black" stroke="black" points="288.82,-172.5 298.82,-169 288.82,-165.5 288.82,-172.5"/>
</g>
</g>
</svg>
