<?xml version="1.0" encoding="UTF-8" standalone="no"?>
<!DOCTYPE svg PUBLIC "-//W3C//DTD SVG 1.1//EN"
 "http://www.w3.org/Graphics/SVG/1.1/DTD/svg11.dtd">
<!-- Generated by graphviz version 2.47.0 (20210316.0004)
 -->
<!-- Title: dependencies Pages: 1 -->
<svg width="859pt" height="211pt"
 viewBox="0.00 0.00 859.00 211.00" xmlns="http://www.w3.org/2000/svg" xmlns:xlink="http://www.w3.org/1999/xlink">
<g id="graph0" class="graph" transform="scale(1 1) rotate(0) translate(4 207)">
<title>dependencies</title>
<polygon fill="white" stroke="transparent" points="-4,4 -4,-207 855,-207 855,4 -4,4"/>
<text text-anchor="start" x="404.51" y="-42.4" font-family="Times-12" font-weight="bold" font-size="14.00">Legend</text>
<polygon fill="#ffffb3" stroke="transparent" points="191.5,-10 191.5,-30 211.5,-30 211.5,-10 191.5,-10"/>
<text text-anchor="start" x="215.13" y="-15.4" font-family="Times-12" font-size="14.00"> &#160;Declarations</text>
<polygon fill="#8dd3c7" stroke="transparent" points="304.5,-10 304.5,-30 324.5,-30 324.5,-10 304.5,-10"/>
<text text-anchor="start" x="328.23" y="-15.4" font-family="Times-12" font-size="14.00"> &#160;Module</text>
<polygon fill="#80b1d3" stroke="transparent" points="390.5,-10 390.5,-30 410.5,-30 410.5,-10 390.5,-10"/>
<text text-anchor="start" x="414.28" y="-15.4" font-family="Times-12" font-size="14.00"> &#160;Bootstrap</text>
<polygon fill="#fdb462" stroke="transparent" points="487.5,-10 487.5,-30 507.5,-30 507.5,-10 487.5,-10"/>
<text text-anchor="start" x="511.17" y="-15.4" font-family="Times-12" font-size="14.00"> &#160;Providers</text>
<polygon fill="#fb8072" stroke="transparent" points="583.5,-10 583.5,-30 603.5,-30 603.5,-10 583.5,-10"/>
<text text-anchor="start" x="607.23" y="-15.4" font-family="Times-12" font-size="14.00"> &#160;Exports</text>
<g id="clust1" class="cluster">
<title>cluster_RegisterPageModule</title>
<polygon fill="none" stroke="black" stroke-dasharray="1,5" points="8,-70 8,-195 843,-195 843,-70 8,-70"/>
</g>
<g id="clust4" class="cluster">
<title>cluster_RegisterPageModule_imports</title>
<polygon fill="none" stroke="black" points="130,-78 130,-130 835,-130 835,-78 130,-78"/>
</g>
<g id="clust2" class="cluster">
<title>cluster_RegisterPageModule_declarations</title>
<polygon fill="none" stroke="black" points="16,-78 16,-130 122,-130 122,-78 16,-78"/>
</g>
<!-- RegisterPage -->
<g id="node1" class="node">
<title>RegisterPage</title>
<polygon fill="#ffffb3" stroke="black" points="113.86,-122 24.14,-122 24.14,-86 113.86,-86 113.86,-122"/>
<text text-anchor="middle" x="69" y="-99.8" font-family="Times,serif" font-size="14.00">RegisterPage</text>
</g>
<!-- RegisterPageModule -->
<g id="node2" class="node">
<title>RegisterPageModule</title>
<polygon fill="#8dd3c7" stroke="black" points="530.91,-187 527.91,-191 506.91,-191 503.91,-187 397.09,-187 397.09,-151 530.91,-151 530.91,-187"/>
<text text-anchor="middle" x="464" y="-164.8" font-family="Times,serif" font-size="14.00">RegisterPageModule</text>
</g>
<!-- RegisterPage&#45;&gt;RegisterPageModule -->
<g id="edge1" class="edge">
<title>RegisterPage&#45;&gt;RegisterPageModule</title>
<path fill="none" stroke="black" d="M69,-122.28C69,-143.32 69,-175 69,-175 69,-175 386.99,-175 386.99,-175"/>
<polygon fill="black" stroke="black" points="386.99,-178.5 396.99,-175 386.99,-171.5 386.99,-178.5"/>
</g>
<!-- CommonModule -->
<g id="node3" class="node">
<title>CommonModule</title>
<polygon fill="#8dd3c7" stroke="black" points="826.67,-122 823.67,-126 802.67,-126 799.67,-122 715.33,-122 715.33,-86 826.67,-86 826.67,-122"/>
<text text-anchor="middle" x="771" y="-99.8" font-family="Times,serif" font-size="14.00">CommonModule</text>
</g>
<!-- CommonModule&#45;&gt;RegisterPageModule -->
<g id="edge2" class="edge">
<title>CommonModule&#45;&gt;RegisterPageModule</title>
<path fill="none" stroke="black" d="M771,-122.28C771,-143.32 771,-175 771,-175 771,-175 540.99,-175 540.99,-175"/>
<polygon fill="black" stroke="black" points="540.99,-171.5 530.99,-175 540.99,-178.5 540.99,-171.5"/>
</g>
<!-- FormsModule -->
<g id="node4" class="node">
<title>FormsModule</title>
<polygon fill="#8dd3c7" stroke="black" points="697.83,-122 694.83,-126 673.83,-126 670.83,-122 602.17,-122 602.17,-86 697.83,-86 697.83,-122"/>
<text text-anchor="middle" x="650" y="-99.8" font-family="Times,serif" font-size="14.00">FormsModule</text>
</g>
<!-- FormsModule&#45;&gt;RegisterPageModule -->
<g id="edge3" class="edge">
<title>FormsModule&#45;&gt;RegisterPageModule</title>
<path fill="none" stroke="black" d="M650,-122.02C650,-139.37 650,-163 650,-163 650,-163 540.89,-163 540.89,-163"/>
<polygon fill="black" stroke="black" points="540.89,-159.5 530.89,-163 540.89,-166.5 540.89,-159.5"/>
</g>
<!-- IonicModule -->
<g id="node5" class="node">
<title>IonicModule</title>
<polygon fill="#8dd3c7" stroke="black" points="584.32,-122 581.32,-126 560.32,-126 557.32,-122 495.68,-122 495.68,-86 584.32,-86 584.32,-122"/>
<text text-anchor="middle" x="540" y="-99.8" font-family="Times,serif" font-size="14.00">IonicModule</text>
</g>
<!-- IonicModule&#45;&gt;RegisterPageModule -->
<g id="edge4" class="edge">
<title>IonicModule&#45;&gt;RegisterPageModule</title>
<path fill="none" stroke="black" d="M513.27,-122.11C513.27,-122.11 513.27,-140.99 513.27,-140.99"/>
<polygon fill="black" stroke="black" points="509.77,-140.99 513.27,-150.99 516.77,-140.99 509.77,-140.99"/>
</g>
<!-- RegisterPageRoutingModule -->
<g id="node6" class="node">
<title>RegisterPageRoutingModule</title>
<polygon fill="#8dd3c7" stroke="black" points="478.03,-122 475.03,-126 454.03,-126 451.03,-122 299.97,-122 299.97,-86 478.03,-86 478.03,-122"/>
<text text-anchor="middle" x="389" y="-99.8" font-family="Times,serif" font-size="14.00">RegisterPageRoutingModule</text>
</g>
<!-- RegisterPageRoutingModule&#45;&gt;RegisterPageModule -->
<g id="edge5" class="edge">
<title>RegisterPageRoutingModule&#45;&gt;RegisterPageModule</title>
<path fill="none" stroke="black" d="M437.78,-122.11C437.78,-122.11 437.78,-140.99 437.78,-140.99"/>
<polygon fill="black" stroke="black" points="434.28,-140.99 437.78,-150.99 441.28,-140.99 434.28,-140.99"/>
</g>
<!-- ReactiveFormsModule -->
<g id="node7" class="node">
<title>ReactiveFormsModule</title>
<polygon fill="#8dd3c7" stroke="black" points="282.3,-122 279.3,-126 258.3,-126 255.3,-122 137.7,-122 137.7,-86 282.3,-86 282.3,-122"/>
<text text-anchor="middle" x="210" y="-99.8" font-family="Times,serif" font-size="14.00">ReactiveFormsModule</text>
</g>
<!-- ReactiveFormsModule&#45;&gt;RegisterPageModule -->
<g id="edge6" class="edge">
<title>ReactiveFormsModule&#45;&gt;RegisterPageModule</title>
<path fill="none" stroke="black" d="M210,-122.02C210,-139.37 210,-163 210,-163 210,-163 387.26,-163 387.26,-163"/>
<polygon fill="black" stroke="black" points="387.26,-166.5 397.26,-163 387.26,-159.5 387.26,-166.5"/>
</g>
</g>
</svg>
