<?xml version="1.0" encoding="UTF-8" standalone="no"?>
<!DOCTYPE svg PUBLIC "-//W3C//DTD SVG 1.1//EN"
 "http://www.w3.org/Graphics/SVG/1.1/DTD/svg11.dtd">
<!-- Generated by graphviz version 2.47.0 (20210316.0004)
 -->
<!-- Title: dependencies Pages: 1 -->
<svg width="879pt" height="211pt"
 viewBox="0.00 0.00 879.00 211.00" xmlns="http://www.w3.org/2000/svg" xmlns:xlink="http://www.w3.org/1999/xlink">
<g id="graph0" class="graph" transform="scale(1 1) rotate(0) translate(4 207)">
<title>dependencies</title>
<polygon fill="white" stroke="transparent" points="-4,4 -4,-207 875,-207 875,4 -4,4"/>
<text text-anchor="start" x="414.51" y="-42.4" font-family="Times-12" font-weight="bold" font-size="14.00">Legend</text>
<polygon fill="#ffffb3" stroke="transparent" points="201.5,-10 201.5,-30 221.5,-30 221.5,-10 201.5,-10"/>
<text text-anchor="start" x="225.13" y="-15.4" font-family="Times-12" font-size="14.00"> &#160;Declarations</text>
<polygon fill="#8dd3c7" stroke="transparent" points="314.5,-10 314.5,-30 334.5,-30 334.5,-10 314.5,-10"/>
<text text-anchor="start" x="338.23" y="-15.4" font-family="Times-12" font-size="14.00"> &#160;Module</text>
<polygon fill="#80b1d3" stroke="transparent" points="400.5,-10 400.5,-30 420.5,-30 420.5,-10 400.5,-10"/>
<text text-anchor="start" x="424.28" y="-15.4" font-family="Times-12" font-size="14.00"> &#160;Bootstrap</text>
<polygon fill="#fdb462" stroke="transparent" points="497.5,-10 497.5,-30 517.5,-30 517.5,-10 497.5,-10"/>
<text text-anchor="start" x="521.17" y="-15.4" font-family="Times-12" font-size="14.00"> &#160;Providers</text>
<polygon fill="#fb8072" stroke="transparent" points="593.5,-10 593.5,-30 613.5,-30 613.5,-10 593.5,-10"/>
<text text-anchor="start" x="617.23" y="-15.4" font-family="Times-12" font-size="14.00"> &#160;Exports</text>
<g id="clust1" class="cluster">
<title>cluster_AdminEditRecipeModalPageModule</title>
<polygon fill="none" stroke="black" stroke-dasharray="1,5" points="8,-70 8,-195 863,-195 863,-70 8,-70"/>
</g>
<g id="clust2" class="cluster">
<title>cluster_AdminEditRecipeModalPageModule_declarations</title>
<polygon fill="none" stroke="black" points="659,-78 659,-130 855,-130 855,-78 659,-78"/>
</g>
<g id="clust4" class="cluster">
<title>cluster_AdminEditRecipeModalPageModule_imports</title>
<polygon fill="none" stroke="black" points="16,-78 16,-130 651,-130 651,-78 16,-78"/>
</g>
<!-- AdminEditRecipeModalPage -->
<g id="node1" class="node">
<title>AdminEditRecipeModalPage</title>
<polygon fill="#ffffb3" stroke="black" points="847.35,-122 666.65,-122 666.65,-86 847.35,-86 847.35,-122"/>
<text text-anchor="middle" x="757" y="-99.8" font-family="Times,serif" font-size="14.00">AdminEditRecipeModalPage</text>
</g>
<!-- AdminEditRecipeModalPageModule -->
<g id="node2" class="node">
<title>AdminEditRecipeModalPageModule</title>
<polygon fill="#8dd3c7" stroke="black" points="578.4,-187 575.4,-191 554.4,-191 551.4,-187 353.6,-187 353.6,-151 578.4,-151 578.4,-187"/>
<text text-anchor="middle" x="466" y="-164.8" font-family="Times,serif" font-size="14.00">AdminEditRecipeModalPageModule</text>
</g>
<!-- AdminEditRecipeModalPage&#45;&gt;AdminEditRecipeModalPageModule -->
<g id="edge1" class="edge">
<title>AdminEditRecipeModalPage&#45;&gt;AdminEditRecipeModalPageModule</title>
<path fill="none" stroke="black" d="M757,-122.11C757,-141.34 757,-169 757,-169 757,-169 588.51,-169 588.51,-169"/>
<polygon fill="black" stroke="black" points="588.51,-165.5 578.51,-169 588.51,-172.5 588.51,-165.5"/>
</g>
<!-- CommonModule -->
<g id="node3" class="node">
<title>CommonModule</title>
<polygon fill="#8dd3c7" stroke="black" points="642.67,-122 639.67,-126 618.67,-126 615.67,-122 531.33,-122 531.33,-86 642.67,-86 642.67,-122"/>
<text text-anchor="middle" x="587" y="-99.8" font-family="Times,serif" font-size="14.00">CommonModule</text>
</g>
<!-- CommonModule&#45;&gt;AdminEditRecipeModalPageModule -->
<g id="edge2" class="edge">
<title>CommonModule&#45;&gt;AdminEditRecipeModalPageModule</title>
<path fill="none" stroke="black" d="M554.68,-122.11C554.68,-122.11 554.68,-140.99 554.68,-140.99"/>
<polygon fill="black" stroke="black" points="551.18,-140.99 554.68,-150.99 558.18,-140.99 551.18,-140.99"/>
</g>
<!-- FormsModule -->
<g id="node4" class="node">
<title>FormsModule</title>
<polygon fill="#8dd3c7" stroke="black" points="513.83,-122 510.83,-126 489.83,-126 486.83,-122 418.17,-122 418.17,-86 513.83,-86 513.83,-122"/>
<text text-anchor="middle" x="466" y="-99.8" font-family="Times,serif" font-size="14.00">FormsModule</text>
</g>
<!-- FormsModule&#45;&gt;AdminEditRecipeModalPageModule -->
<g id="edge3" class="edge">
<title>FormsModule&#45;&gt;AdminEditRecipeModalPageModule</title>
<path fill="none" stroke="black" d="M466,-122.11C466,-122.11 466,-140.99 466,-140.99"/>
<polygon fill="black" stroke="black" points="462.5,-140.99 466,-150.99 469.5,-140.99 462.5,-140.99"/>
</g>
<!-- IonicModule -->
<g id="node5" class="node">
<title>IonicModule</title>
<polygon fill="#8dd3c7" stroke="black" points="400.32,-122 397.32,-126 376.32,-126 373.32,-122 311.68,-122 311.68,-86 400.32,-86 400.32,-122"/>
<text text-anchor="middle" x="356" y="-99.8" font-family="Times,serif" font-size="14.00">IonicModule</text>
</g>
<!-- IonicModule&#45;&gt;AdminEditRecipeModalPageModule -->
<g id="edge4" class="edge">
<title>IonicModule&#45;&gt;AdminEditRecipeModalPageModule</title>
<path fill="none" stroke="black" d="M376.98,-122.11C376.98,-122.11 376.98,-140.99 376.98,-140.99"/>
<polygon fill="black" stroke="black" points="373.48,-140.99 376.98,-150.99 380.48,-140.99 373.48,-140.99"/>
</g>
<!-- AdminEditRecipeModalPageRoutingModule -->
<g id="node6" class="node">
<title>AdminEditRecipeModalPageRoutingModule</title>
<polygon fill="#8dd3c7" stroke="black" points="293.52,-122 290.52,-126 269.52,-126 266.52,-122 24.48,-122 24.48,-86 293.52,-86 293.52,-122"/>
<text text-anchor="middle" x="159" y="-99.8" font-family="Times,serif" font-size="14.00">AdminEditRecipeModalPageRoutingModule</text>
</g>
<!-- AdminEditRecipeModalPageRoutingModule&#45;&gt;AdminEditRecipeModalPageModule -->
<g id="edge5" class="edge">
<title>AdminEditRecipeModalPageRoutingModule&#45;&gt;AdminEditRecipeModalPageModule</title>
<path fill="none" stroke="black" d="M159,-122.11C159,-141.34 159,-169 159,-169 159,-169 343.43,-169 343.43,-169"/>
<polygon fill="black" stroke="black" points="343.43,-172.5 353.43,-169 343.43,-165.5 343.43,-172.5"/>
</g>
</g>
</svg>
