<?xml version="1.0" encoding="UTF-8" standalone="no"?>
<!DOCTYPE svg PUBLIC "-//W3C//DTD SVG 1.1//EN"
 "http://www.w3.org/Graphics/SVG/1.1/DTD/svg11.dtd">
<!-- Generated by graphviz version 2.47.0 (20210316.0004)
 -->
<!-- Title: dependencies Pages: 1 -->
<svg width="949pt" height="211pt"
 viewBox="0.00 0.00 949.00 211.00" xmlns="http://www.w3.org/2000/svg" xmlns:xlink="http://www.w3.org/1999/xlink">
<g id="graph0" class="graph" transform="scale(1 1) rotate(0) translate(4 207)">
<title>dependencies</title>
<polygon fill="white" stroke="transparent" points="-4,4 -4,-207 945,-207 945,4 -4,4"/>
<text text-anchor="start" x="449.51" y="-42.4" font-family="Times-12" font-weight="bold" font-size="14.00">Legend</text>
<polygon fill="#ffffb3" stroke="transparent" points="236.5,-10 236.5,-30 256.5,-30 256.5,-10 236.5,-10"/>
<text text-anchor="start" x="260.13" y="-15.4" font-family="Times-12" font-size="14.00"> &#160;Declarations</text>
<polygon fill="#8dd3c7" stroke="transparent" points="349.5,-10 349.5,-30 369.5,-30 369.5,-10 349.5,-10"/>
<text text-anchor="start" x="373.23" y="-15.4" font-family="Times-12" font-size="14.00"> &#160;Module</text>
<polygon fill="#80b1d3" stroke="transparent" points="435.5,-10 435.5,-30 455.5,-30 455.5,-10 435.5,-10"/>
<text text-anchor="start" x="459.28" y="-15.4" font-family="Times-12" font-size="14.00"> &#160;Bootstrap</text>
<polygon fill="#fdb462" stroke="transparent" points="532.5,-10 532.5,-30 552.5,-30 552.5,-10 532.5,-10"/>
<text text-anchor="start" x="556.17" y="-15.4" font-family="Times-12" font-size="14.00"> &#160;Providers</text>
<polygon fill="#fb8072" stroke="transparent" points="628.5,-10 628.5,-30 648.5,-30 648.5,-10 628.5,-10"/>
<text text-anchor="start" x="652.23" y="-15.4" font-family="Times-12" font-size="14.00"> &#160;Exports</text>
<g id="clust1" class="cluster">
<title>cluster_ForgotPasswordPageModule</title>
<polygon fill="none" stroke="black" stroke-dasharray="1,5" points="8,-70 8,-195 933,-195 933,-70 8,-70"/>
</g>
<g id="clust2" class="cluster">
<title>cluster_ForgotPasswordPageModule_declarations</title>
<polygon fill="none" stroke="black" points="775,-78 775,-130 925,-130 925,-78 775,-78"/>
</g>
<g id="clust4" class="cluster">
<title>cluster_ForgotPasswordPageModule_imports</title>
<polygon fill="none" stroke="black" points="16,-78 16,-130 767,-130 767,-78 16,-78"/>
</g>
<!-- ForgotPasswordPage -->
<g id="node1" class="node">
<title>ForgotPasswordPage</title>
<polygon fill="#ffffb3" stroke="black" points="917.2,-122 782.8,-122 782.8,-86 917.2,-86 917.2,-122"/>
<text text-anchor="middle" x="850" y="-99.8" font-family="Times,serif" font-size="14.00">ForgotPasswordPage</text>
</g>
<!-- ForgotPasswordPageModule -->
<g id="node2" class="node">
<title>ForgotPasswordPageModule</title>
<polygon fill="#8dd3c7" stroke="black" points="615.75,-187 612.75,-191 591.75,-191 588.75,-187 438.25,-187 438.25,-151 615.75,-151 615.75,-187"/>
<text text-anchor="middle" x="527" y="-164.8" font-family="Times,serif" font-size="14.00">ForgotPasswordPageModule</text>
</g>
<!-- ForgotPasswordPage&#45;&gt;ForgotPasswordPageModule -->
<g id="edge1" class="edge">
<title>ForgotPasswordPage&#45;&gt;ForgotPasswordPageModule</title>
<path fill="none" stroke="black" d="M850,-122.28C850,-143.32 850,-175 850,-175 850,-175 626.12,-175 626.12,-175"/>
<polygon fill="black" stroke="black" points="626.12,-171.5 616.12,-175 626.12,-178.5 626.12,-171.5"/>
</g>
<!-- CommonModule -->
<g id="node3" class="node">
<title>CommonModule</title>
<polygon fill="#8dd3c7" stroke="black" points="758.67,-122 755.67,-126 734.67,-126 731.67,-122 647.33,-122 647.33,-86 758.67,-86 758.67,-122"/>
<text text-anchor="middle" x="703" y="-99.8" font-family="Times,serif" font-size="14.00">CommonModule</text>
</g>
<!-- CommonModule&#45;&gt;ForgotPasswordPageModule -->
<g id="edge2" class="edge">
<title>CommonModule&#45;&gt;ForgotPasswordPageModule</title>
<path fill="none" stroke="black" d="M703,-122.02C703,-139.37 703,-163 703,-163 703,-163 625.77,-163 625.77,-163"/>
<polygon fill="black" stroke="black" points="625.77,-159.5 615.77,-163 625.77,-166.5 625.77,-159.5"/>
</g>
<!-- FormsModule -->
<g id="node4" class="node">
<title>FormsModule</title>
<polygon fill="#8dd3c7" stroke="black" points="629.83,-122 626.83,-126 605.83,-126 602.83,-122 534.17,-122 534.17,-86 629.83,-86 629.83,-122"/>
<text text-anchor="middle" x="582" y="-99.8" font-family="Times,serif" font-size="14.00">FormsModule</text>
</g>
<!-- FormsModule&#45;&gt;ForgotPasswordPageModule -->
<g id="edge3" class="edge">
<title>FormsModule&#45;&gt;ForgotPasswordPageModule</title>
<path fill="none" stroke="black" d="M575.11,-122.11C575.11,-122.11 575.11,-140.99 575.11,-140.99"/>
<polygon fill="black" stroke="black" points="571.61,-140.99 575.11,-150.99 578.61,-140.99 571.61,-140.99"/>
</g>
<!-- IonicModule -->
<g id="node5" class="node">
<title>IonicModule</title>
<polygon fill="#8dd3c7" stroke="black" points="516.32,-122 513.32,-126 492.32,-126 489.32,-122 427.68,-122 427.68,-86 516.32,-86 516.32,-122"/>
<text text-anchor="middle" x="472" y="-99.8" font-family="Times,serif" font-size="14.00">IonicModule</text>
</g>
<!-- IonicModule&#45;&gt;ForgotPasswordPageModule -->
<g id="edge4" class="edge">
<title>IonicModule&#45;&gt;ForgotPasswordPageModule</title>
<path fill="none" stroke="black" d="M477.14,-122.11C477.14,-122.11 477.14,-140.99 477.14,-140.99"/>
<polygon fill="black" stroke="black" points="473.64,-140.99 477.14,-150.99 480.64,-140.99 473.64,-140.99"/>
</g>
<!-- ForgotPasswordPageRoutingModule -->
<g id="node6" class="node">
<title>ForgotPasswordPageRoutingModule</title>
<polygon fill="#8dd3c7" stroke="black" points="409.37,-122 406.37,-126 385.37,-126 382.37,-122 186.63,-122 186.63,-86 409.37,-86 409.37,-122"/>
<text text-anchor="middle" x="298" y="-99.8" font-family="Times,serif" font-size="14.00">ForgotPasswordPageRoutingModule</text>
</g>
<!-- ForgotPasswordPageRoutingModule&#45;&gt;ForgotPasswordPageModule -->
<g id="edge5" class="edge">
<title>ForgotPasswordPageRoutingModule&#45;&gt;ForgotPasswordPageModule</title>
<path fill="none" stroke="black" d="M298,-122.02C298,-139.37 298,-163 298,-163 298,-163 428.13,-163 428.13,-163"/>
<polygon fill="black" stroke="black" points="428.13,-166.5 438.13,-163 428.13,-159.5 428.13,-166.5"/>
</g>
<!-- ReactiveFormsModule -->
<g id="node7" class="node">
<title>ReactiveFormsModule</title>
<polygon fill="#8dd3c7" stroke="black" points="168.3,-122 165.3,-126 144.3,-126 141.3,-122 23.7,-122 23.7,-86 168.3,-86 168.3,-122"/>
<text text-anchor="middle" x="96" y="-99.8" font-family="Times,serif" font-size="14.00">ReactiveFormsModule</text>
</g>
<!-- ReactiveFormsModule&#45;&gt;ForgotPasswordPageModule -->
<g id="edge6" class="edge">
<title>ReactiveFormsModule&#45;&gt;ForgotPasswordPageModule</title>
<path fill="none" stroke="black" d="M96,-122.28C96,-143.32 96,-175 96,-175 96,-175 428.22,-175 428.22,-175"/>
<polygon fill="black" stroke="black" points="428.22,-178.5 438.22,-175 428.22,-171.5 428.22,-178.5"/>
</g>
</g>
</svg>
