<?xml version="1.0" encoding="UTF-8" standalone="no"?>
<!DOCTYPE svg PUBLIC "-//W3C//DTD SVG 1.1//EN"
 "http://www.w3.org/Graphics/SVG/1.1/DTD/svg11.dtd">
<!-- Generated by graphviz version 2.47.0 (20210316.0004)
 -->
<!-- Title: dependencies Pages: 1 -->
<svg width="809pt" height="211pt"
 viewBox="0.00 0.00 809.00 211.00" xmlns="http://www.w3.org/2000/svg" xmlns:xlink="http://www.w3.org/1999/xlink">
<g id="graph0" class="graph" transform="scale(1 1) rotate(0) translate(4 207)">
<title>dependencies</title>
<polygon fill="white" stroke="transparent" points="-4,4 -4,-207 805,-207 805,4 -4,4"/>
<text text-anchor="start" x="379.51" y="-42.4" font-family="Times-12" font-weight="bold" font-size="14.00">Legend</text>
<polygon fill="#ffffb3" stroke="transparent" points="166.5,-10 166.5,-30 186.5,-30 186.5,-10 166.5,-10"/>
<text text-anchor="start" x="190.13" y="-15.4" font-family="Times-12" font-size="14.00"> &#160;Declarations</text>
<polygon fill="#8dd3c7" stroke="transparent" points="279.5,-10 279.5,-30 299.5,-30 299.5,-10 279.5,-10"/>
<text text-anchor="start" x="303.23" y="-15.4" font-family="Times-12" font-size="14.00"> &#160;Module</text>
<polygon fill="#80b1d3" stroke="transparent" points="365.5,-10 365.5,-30 385.5,-30 385.5,-10 365.5,-10"/>
<text text-anchor="start" x="389.28" y="-15.4" font-family="Times-12" font-size="14.00"> &#160;Bootstrap</text>
<polygon fill="#fdb462" stroke="transparent" points="462.5,-10 462.5,-30 482.5,-30 482.5,-10 462.5,-10"/>
<text text-anchor="start" x="486.17" y="-15.4" font-family="Times-12" font-size="14.00"> &#160;Providers</text>
<polygon fill="#fb8072" stroke="transparent" points="558.5,-10 558.5,-30 578.5,-30 578.5,-10 558.5,-10"/>
<text text-anchor="start" x="582.23" y="-15.4" font-family="Times-12" font-size="14.00"> &#160;Exports</text>
<g id="clust1" class="cluster">
<title>cluster_DishDetailsModalPageModule</title>
<polygon fill="none" stroke="black" stroke-dasharray="1,5" points="8,-70 8,-195 793,-195 793,-70 8,-70"/>
</g>
<g id="clust4" class="cluster">
<title>cluster_DishDetailsModalPageModule_imports</title>
<polygon fill="none" stroke="black" points="186,-78 186,-130 785,-130 785,-78 186,-78"/>
</g>
<g id="clust2" class="cluster">
<title>cluster_DishDetailsModalPageModule_declarations</title>
<polygon fill="none" stroke="black" points="16,-78 16,-130 178,-130 178,-78 16,-78"/>
</g>
<!-- DishDetailsModalPage -->
<g id="node1" class="node">
<title>DishDetailsModalPage</title>
<polygon fill="#ffffb3" stroke="black" points="169.86,-122 24.14,-122 24.14,-86 169.86,-86 169.86,-122"/>
<text text-anchor="middle" x="97" y="-99.8" font-family="Times,serif" font-size="14.00">DishDetailsModalPage</text>
</g>
<!-- DishDetailsModalPageModule -->
<g id="node2" class="node">
<title>DishDetailsModalPageModule</title>
<polygon fill="#8dd3c7" stroke="black" points="584.91,-187 581.91,-191 560.91,-191 557.91,-187 395.09,-187 395.09,-151 584.91,-151 584.91,-187"/>
<text text-anchor="middle" x="490" y="-164.8" font-family="Times,serif" font-size="14.00">DishDetailsModalPageModule</text>
</g>
<!-- DishDetailsModalPage&#45;&gt;DishDetailsModalPageModule -->
<g id="edge1" class="edge">
<title>DishDetailsModalPage&#45;&gt;DishDetailsModalPageModule</title>
<path fill="none" stroke="black" d="M97,-122.11C97,-141.34 97,-169 97,-169 97,-169 385.12,-169 385.12,-169"/>
<polygon fill="black" stroke="black" points="385.12,-172.5 395.12,-169 385.12,-165.5 385.12,-172.5"/>
</g>
<!-- CommonModule -->
<g id="node3" class="node">
<title>CommonModule</title>
<polygon fill="#8dd3c7" stroke="black" points="776.67,-122 773.67,-126 752.67,-126 749.67,-122 665.33,-122 665.33,-86 776.67,-86 776.67,-122"/>
<text text-anchor="middle" x="721" y="-99.8" font-family="Times,serif" font-size="14.00">CommonModule</text>
</g>
<!-- CommonModule&#45;&gt;DishDetailsModalPageModule -->
<g id="edge2" class="edge">
<title>CommonModule&#45;&gt;DishDetailsModalPageModule</title>
<path fill="none" stroke="black" d="M721,-122.11C721,-141.34 721,-169 721,-169 721,-169 594.96,-169 594.96,-169"/>
<polygon fill="black" stroke="black" points="594.96,-165.5 584.96,-169 594.96,-172.5 594.96,-165.5"/>
</g>
<!-- FormsModule -->
<g id="node4" class="node">
<title>FormsModule</title>
<polygon fill="#8dd3c7" stroke="black" points="647.83,-122 644.83,-126 623.83,-126 620.83,-122 552.17,-122 552.17,-86 647.83,-86 647.83,-122"/>
<text text-anchor="middle" x="600" y="-99.8" font-family="Times,serif" font-size="14.00">FormsModule</text>
</g>
<!-- FormsModule&#45;&gt;DishDetailsModalPageModule -->
<g id="edge3" class="edge">
<title>FormsModule&#45;&gt;DishDetailsModalPageModule</title>
<path fill="none" stroke="black" d="M568.52,-122.11C568.52,-122.11 568.52,-140.99 568.52,-140.99"/>
<polygon fill="black" stroke="black" points="565.02,-140.99 568.52,-150.99 572.02,-140.99 565.02,-140.99"/>
</g>
<!-- IonicModule -->
<g id="node5" class="node">
<title>IonicModule</title>
<polygon fill="#8dd3c7" stroke="black" points="534.32,-122 531.32,-126 510.32,-126 507.32,-122 445.68,-122 445.68,-86 534.32,-86 534.32,-122"/>
<text text-anchor="middle" x="490" y="-99.8" font-family="Times,serif" font-size="14.00">IonicModule</text>
</g>
<!-- IonicModule&#45;&gt;DishDetailsModalPageModule -->
<g id="edge4" class="edge">
<title>IonicModule&#45;&gt;DishDetailsModalPageModule</title>
<path fill="none" stroke="black" d="M490,-122.11C490,-122.11 490,-140.99 490,-140.99"/>
<polygon fill="black" stroke="black" points="486.5,-140.99 490,-150.99 493.5,-140.99 486.5,-140.99"/>
</g>
<!-- DishDetailsModalPageRoutingModule -->
<g id="node6" class="node">
<title>DishDetailsModalPageRoutingModule</title>
<polygon fill="#8dd3c7" stroke="black" points="428.02,-122 425.02,-126 404.02,-126 401.02,-122 193.98,-122 193.98,-86 428.02,-86 428.02,-122"/>
<text text-anchor="middle" x="311" y="-99.8" font-family="Times,serif" font-size="14.00">DishDetailsModalPageRoutingModule</text>
</g>
<!-- DishDetailsModalPageRoutingModule&#45;&gt;DishDetailsModalPageModule -->
<g id="edge5" class="edge">
<title>DishDetailsModalPageRoutingModule&#45;&gt;DishDetailsModalPageModule</title>
<path fill="none" stroke="black" d="M411.78,-122.11C411.78,-122.11 411.78,-140.99 411.78,-140.99"/>
<polygon fill="black" stroke="black" points="408.28,-140.99 411.78,-150.99 415.28,-140.99 408.28,-140.99"/>
</g>
</g>
</svg>
