<?xml version="1.0" encoding="UTF-8" standalone="no"?>
<!DOCTYPE svg PUBLIC "-//W3C//DTD SVG 1.1//EN"
 "http://www.w3.org/Graphics/SVG/1.1/DTD/svg11.dtd">
<!-- Generated by graphviz version 2.47.0 (20210316.0004)
 -->
<!-- Title: dependencies Pages: 1 -->
<svg width="755pt" height="211pt"
 viewBox="0.00 0.00 755.00 211.00" xmlns="http://www.w3.org/2000/svg" xmlns:xlink="http://www.w3.org/1999/xlink">
<g id="graph0" class="graph" transform="scale(1 1) rotate(0) translate(4 207)">
<title>dependencies</title>
<polygon fill="white" stroke="transparent" points="-4,4 -4,-207 751,-207 751,4 -4,4"/>
<text text-anchor="start" x="352.51" y="-42.4" font-family="Times-12" font-weight="bold" font-size="14.00">Legend</text>
<polygon fill="#ffffb3" stroke="transparent" points="139.5,-10 139.5,-30 159.5,-30 159.5,-10 139.5,-10"/>
<text text-anchor="start" x="163.13" y="-15.4" font-family="Times-12" font-size="14.00"> &#160;Declarations</text>
<polygon fill="#8dd3c7" stroke="transparent" points="252.5,-10 252.5,-30 272.5,-30 272.5,-10 252.5,-10"/>
<text text-anchor="start" x="276.23" y="-15.4" font-family="Times-12" font-size="14.00"> &#160;Module</text>
<polygon fill="#80b1d3" stroke="transparent" points="338.5,-10 338.5,-30 358.5,-30 358.5,-10 338.5,-10"/>
<text text-anchor="start" x="362.28" y="-15.4" font-family="Times-12" font-size="14.00"> &#160;Bootstrap</text>
<polygon fill="#fdb462" stroke="transparent" points="435.5,-10 435.5,-30 455.5,-30 455.5,-10 435.5,-10"/>
<text text-anchor="start" x="459.17" y="-15.4" font-family="Times-12" font-size="14.00"> &#160;Providers</text>
<polygon fill="#fb8072" stroke="transparent" points="531.5,-10 531.5,-30 551.5,-30 551.5,-10 531.5,-10"/>
<text text-anchor="start" x="555.23" y="-15.4" font-family="Times-12" font-size="14.00"> &#160;Exports</text>
<g id="clust1" class="cluster">
<title>cluster_ArticleModalPageModule</title>
<polygon fill="none" stroke="black" stroke-dasharray="1,5" points="8,-70 8,-195 739,-195 739,-70 8,-70"/>
</g>
<g id="clust2" class="cluster">
<title>cluster_ArticleModalPageModule_declarations</title>
<polygon fill="none" stroke="black" points="597,-78 597,-130 731,-130 731,-78 597,-78"/>
</g>
<g id="clust4" class="cluster">
<title>cluster_ArticleModalPageModule_imports</title>
<polygon fill="none" stroke="black" points="16,-78 16,-130 589,-130 589,-78 16,-78"/>
</g>
<!-- ArticleModalPage -->
<g id="node1" class="node">
<title>ArticleModalPage</title>
<polygon fill="#ffffb3" stroke="black" points="723.13,-122 604.87,-122 604.87,-86 723.13,-86 723.13,-122"/>
<text text-anchor="middle" x="664" y="-99.8" font-family="Times,serif" font-size="14.00">ArticleModalPage</text>
</g>
<!-- ArticleModalPageModule -->
<g id="node2" class="node">
<title>ArticleModalPageModule</title>
<polygon fill="#8dd3c7" stroke="black" points="485.18,-187 482.18,-191 461.18,-191 458.18,-187 322.82,-187 322.82,-151 485.18,-151 485.18,-187"/>
<text text-anchor="middle" x="404" y="-164.8" font-family="Times,serif" font-size="14.00">ArticleModalPageModule</text>
</g>
<!-- ArticleModalPage&#45;&gt;ArticleModalPageModule -->
<g id="edge1" class="edge">
<title>ArticleModalPage&#45;&gt;ArticleModalPageModule</title>
<path fill="none" stroke="black" d="M664,-122.11C664,-141.34 664,-169 664,-169 664,-169 495.2,-169 495.2,-169"/>
<polygon fill="black" stroke="black" points="495.2,-165.5 485.2,-169 495.2,-172.5 495.2,-165.5"/>
</g>
<!-- CommonModule -->
<g id="node3" class="node">
<title>CommonModule</title>
<polygon fill="#8dd3c7" stroke="black" points="580.67,-122 577.67,-126 556.67,-126 553.67,-122 469.33,-122 469.33,-86 580.67,-86 580.67,-122"/>
<text text-anchor="middle" x="525" y="-99.8" font-family="Times,serif" font-size="14.00">CommonModule</text>
</g>
<!-- CommonModule&#45;&gt;ArticleModalPageModule -->
<g id="edge2" class="edge">
<title>CommonModule&#45;&gt;ArticleModalPageModule</title>
<path fill="none" stroke="black" d="M477.13,-122.11C477.13,-122.11 477.13,-140.99 477.13,-140.99"/>
<polygon fill="black" stroke="black" points="473.63,-140.99 477.13,-150.99 480.63,-140.99 473.63,-140.99"/>
</g>
<!-- FormsModule -->
<g id="node4" class="node">
<title>FormsModule</title>
<polygon fill="#8dd3c7" stroke="black" points="451.83,-122 448.83,-126 427.83,-126 424.83,-122 356.17,-122 356.17,-86 451.83,-86 451.83,-122"/>
<text text-anchor="middle" x="404" y="-99.8" font-family="Times,serif" font-size="14.00">FormsModule</text>
</g>
<!-- FormsModule&#45;&gt;ArticleModalPageModule -->
<g id="edge3" class="edge">
<title>FormsModule&#45;&gt;ArticleModalPageModule</title>
<path fill="none" stroke="black" d="M404,-122.11C404,-122.11 404,-140.99 404,-140.99"/>
<polygon fill="black" stroke="black" points="400.5,-140.99 404,-150.99 407.5,-140.99 400.5,-140.99"/>
</g>
<!-- IonicModule -->
<g id="node5" class="node">
<title>IonicModule</title>
<polygon fill="#8dd3c7" stroke="black" points="338.32,-122 335.32,-126 314.32,-126 311.32,-122 249.68,-122 249.68,-86 338.32,-86 338.32,-122"/>
<text text-anchor="middle" x="294" y="-99.8" font-family="Times,serif" font-size="14.00">IonicModule</text>
</g>
<!-- IonicModule&#45;&gt;ArticleModalPageModule -->
<g id="edge4" class="edge">
<title>IonicModule&#45;&gt;ArticleModalPageModule</title>
<path fill="none" stroke="black" d="M330.53,-122.11C330.53,-122.11 330.53,-140.99 330.53,-140.99"/>
<polygon fill="black" stroke="black" points="327.03,-140.99 330.53,-150.99 334.03,-140.99 327.03,-140.99"/>
</g>
<!-- ArticleModalPageRoutingModule -->
<g id="node6" class="node">
<title>ArticleModalPageRoutingModule</title>
<polygon fill="#8dd3c7" stroke="black" points="231.8,-122 228.8,-126 207.8,-126 204.8,-122 24.2,-122 24.2,-86 231.8,-86 231.8,-122"/>
<text text-anchor="middle" x="128" y="-99.8" font-family="Times,serif" font-size="14.00">ArticleModalPageRoutingModule</text>
</g>
<!-- ArticleModalPageRoutingModule&#45;&gt;ArticleModalPageModule -->
<g id="edge5" class="edge">
<title>ArticleModalPageRoutingModule&#45;&gt;ArticleModalPageModule</title>
<path fill="none" stroke="black" d="M128,-122.11C128,-141.34 128,-169 128,-169 128,-169 312.68,-169 312.68,-169"/>
<polygon fill="black" stroke="black" points="312.68,-172.5 322.68,-169 312.68,-165.5 312.68,-172.5"/>
</g>
</g>
</svg>
