<?xml version="1.0" encoding="UTF-8" standalone="no"?>
<!DOCTYPE svg PUBLIC "-//W3C//DTD SVG 1.1//EN"
 "http://www.w3.org/Graphics/SVG/1.1/DTD/svg11.dtd">
<!-- Generated by graphviz version 2.47.0 (20210316.0004)
 -->
<!-- Title: dependencies Pages: 1 -->
<svg width="859pt" height="211pt"
 viewBox="0.00 0.00 859.00 211.00" xmlns="http://www.w3.org/2000/svg" xmlns:xlink="http://www.w3.org/1999/xlink">
<g id="graph0" class="graph" transform="scale(1 1) rotate(0) translate(4 207)">
<title>dependencies</title>
<polygon fill="white" stroke="transparent" points="-4,4 -4,-207 855,-207 855,4 -4,4"/>
<text text-anchor="start" x="404.51" y="-42.4" font-family="Times-12" font-weight="bold" font-size="14.00">Legend</text>
<polygon fill="#ffffb3" stroke="transparent" points="191.5,-10 191.5,-30 211.5,-30 211.5,-10 191.5,-10"/>
<text text-anchor="start" x="215.13" y="-15.4" font-family="Times-12" font-size="14.00"> &#160;Declarations</text>
<polygon fill="#8dd3c7" stroke="transparent" points="304.5,-10 304.5,-30 324.5,-30 324.5,-10 304.5,-10"/>
<text text-anchor="start" x="328.23" y="-15.4" font-family="Times-12" font-size="14.00"> &#160;Module</text>
<polygon fill="#80b1d3" stroke="transparent" points="390.5,-10 390.5,-30 410.5,-30 410.5,-10 390.5,-10"/>
<text text-anchor="start" x="414.28" y="-15.4" font-family="Times-12" font-size="14.00"> &#160;Bootstrap</text>
<polygon fill="#fdb462" stroke="transparent" points="487.5,-10 487.5,-30 507.5,-30 507.5,-10 487.5,-10"/>
<text text-anchor="start" x="511.17" y="-15.4" font-family="Times-12" font-size="14.00"> &#160;Providers</text>
<polygon fill="#fb8072" stroke="transparent" points="583.5,-10 583.5,-30 603.5,-30 603.5,-10 583.5,-10"/>
<text text-anchor="start" x="607.23" y="-15.4" font-family="Times-12" font-size="14.00"> &#160;Exports</text>
<g id="clust1" class="cluster">
<title>cluster_ForgotPasswordModalPageModule</title>
<polygon fill="none" stroke="black" stroke-dasharray="1,5" points="8,-70 8,-195 843,-195 843,-70 8,-70"/>
</g>
<g id="clust2" class="cluster">
<title>cluster_ForgotPasswordModalPageModule_declarations</title>
<polygon fill="none" stroke="black" points="649,-78 649,-130 835,-130 835,-78 649,-78"/>
</g>
<g id="clust4" class="cluster">
<title>cluster_ForgotPasswordModalPageModule_imports</title>
<polygon fill="none" stroke="black" points="16,-78 16,-130 641,-130 641,-78 16,-78"/>
</g>
<!-- ForgotPasswordModalPage -->
<g id="node1" class="node">
<title>ForgotPasswordModalPage</title>
<polygon fill="#ffffb3" stroke="black" points="827.25,-122 656.75,-122 656.75,-86 827.25,-86 827.25,-122"/>
<text text-anchor="middle" x="742" y="-99.8" font-family="Times,serif" font-size="14.00">ForgotPasswordModalPage</text>
</g>
<!-- ForgotPasswordModalPageModule -->
<g id="node2" class="node">
<title>ForgotPasswordModalPageModule</title>
<polygon fill="#8dd3c7" stroke="black" points="563.3,-187 560.3,-191 539.3,-191 536.3,-187 348.7,-187 348.7,-151 563.3,-151 563.3,-187"/>
<text text-anchor="middle" x="456" y="-164.8" font-family="Times,serif" font-size="14.00">ForgotPasswordModalPageModule</text>
</g>
<!-- ForgotPasswordModalPage&#45;&gt;ForgotPasswordModalPageModule -->
<g id="edge1" class="edge">
<title>ForgotPasswordModalPage&#45;&gt;ForgotPasswordModalPageModule</title>
<path fill="none" stroke="black" d="M742,-122.11C742,-141.34 742,-169 742,-169 742,-169 573.31,-169 573.31,-169"/>
<polygon fill="black" stroke="black" points="573.31,-165.5 563.31,-169 573.31,-172.5 573.31,-165.5"/>
</g>
<!-- CommonModule -->
<g id="node3" class="node">
<title>CommonModule</title>
<polygon fill="#8dd3c7" stroke="black" points="632.67,-122 629.67,-126 608.67,-126 605.67,-122 521.33,-122 521.33,-86 632.67,-86 632.67,-122"/>
<text text-anchor="middle" x="577" y="-99.8" font-family="Times,serif" font-size="14.00">CommonModule</text>
</g>
<!-- CommonModule&#45;&gt;ForgotPasswordModalPageModule -->
<g id="edge2" class="edge">
<title>CommonModule&#45;&gt;ForgotPasswordModalPageModule</title>
<path fill="none" stroke="black" d="M542.16,-122.11C542.16,-122.11 542.16,-140.99 542.16,-140.99"/>
<polygon fill="black" stroke="black" points="538.66,-140.99 542.16,-150.99 545.66,-140.99 538.66,-140.99"/>
</g>
<!-- FormsModule -->
<g id="node4" class="node">
<title>FormsModule</title>
<polygon fill="#8dd3c7" stroke="black" points="503.83,-122 500.83,-126 479.83,-126 476.83,-122 408.17,-122 408.17,-86 503.83,-86 503.83,-122"/>
<text text-anchor="middle" x="456" y="-99.8" font-family="Times,serif" font-size="14.00">FormsModule</text>
</g>
<!-- FormsModule&#45;&gt;ForgotPasswordModalPageModule -->
<g id="edge3" class="edge">
<title>FormsModule&#45;&gt;ForgotPasswordModalPageModule</title>
<path fill="none" stroke="black" d="M456,-122.11C456,-122.11 456,-140.99 456,-140.99"/>
<polygon fill="black" stroke="black" points="452.5,-140.99 456,-150.99 459.5,-140.99 452.5,-140.99"/>
</g>
<!-- IonicModule -->
<g id="node5" class="node">
<title>IonicModule</title>
<polygon fill="#8dd3c7" stroke="black" points="390.32,-122 387.32,-126 366.32,-126 363.32,-122 301.68,-122 301.68,-86 390.32,-86 390.32,-122"/>
<text text-anchor="middle" x="346" y="-99.8" font-family="Times,serif" font-size="14.00">IonicModule</text>
</g>
<!-- IonicModule&#45;&gt;ForgotPasswordModalPageModule -->
<g id="edge4" class="edge">
<title>IonicModule&#45;&gt;ForgotPasswordModalPageModule</title>
<path fill="none" stroke="black" d="M369.5,-122.11C369.5,-122.11 369.5,-140.99 369.5,-140.99"/>
<polygon fill="black" stroke="black" points="366,-140.99 369.5,-150.99 373,-140.99 366,-140.99"/>
</g>
<!-- ForgotPasswordModalPageRoutingModule -->
<g id="node6" class="node">
<title>ForgotPasswordModalPageRoutingModule</title>
<polygon fill="#8dd3c7" stroke="black" points="283.92,-122 280.92,-126 259.92,-126 256.92,-122 24.08,-122 24.08,-86 283.92,-86 283.92,-122"/>
<text text-anchor="middle" x="154" y="-99.8" font-family="Times,serif" font-size="14.00">ForgotPasswordModalPageRoutingModule</text>
</g>
<!-- ForgotPasswordModalPageRoutingModule&#45;&gt;ForgotPasswordModalPageModule -->
<g id="edge5" class="edge">
<title>ForgotPasswordModalPageRoutingModule&#45;&gt;ForgotPasswordModalPageModule</title>
<path fill="none" stroke="black" d="M154,-122.11C154,-141.34 154,-169 154,-169 154,-169 338.68,-169 338.68,-169"/>
<polygon fill="black" stroke="black" points="338.68,-172.5 348.68,-169 338.68,-165.5 338.68,-172.5"/>
</g>
</g>
</svg>
