<?xml version="1.0" encoding="UTF-8" standalone="no"?>
<!DOCTYPE svg PUBLIC "-//W3C//DTD SVG 1.1//EN"
 "http://www.w3.org/Graphics/SVG/1.1/DTD/svg11.dtd">
<!-- Generated by graphviz version 2.47.0 (20210316.0004)
 -->
<!-- Title: dependencies Pages: 1 -->
<svg width="2111pt" height="284pt"
 viewBox="0.00 0.00 2111.00 284.00" xmlns="http://www.w3.org/2000/svg" xmlns:xlink="http://www.w3.org/1999/xlink">
<g id="graph0" class="graph" transform="scale(1 1) rotate(0) translate(4 280)">
<title>dependencies</title>
<polygon fill="white" stroke="transparent" points="-4,4 -4,-280 2107,-280 2107,4 -4,4"/>
<text text-anchor="start" x="1030.51" y="-42.4" font-family="Times-12" font-weight="bold" font-size="14.00">Legend</text>
<polygon fill="#ffffb3" stroke="transparent" points="817.5,-10 817.5,-30 837.5,-30 837.5,-10 817.5,-10"/>
<text text-anchor="start" x="841.13" y="-15.4" font-family="Times-12" font-size="14.00"> &#160;Declarations</text>
<polygon fill="#8dd3c7" stroke="transparent" points="930.5,-10 930.5,-30 950.5,-30 950.5,-10 930.5,-10"/>
<text text-anchor="start" x="954.23" y="-15.4" font-family="Times-12" font-size="14.00"> &#160;Module</text>
<polygon fill="#80b1d3" stroke="transparent" points="1016.5,-10 1016.5,-30 1036.5,-30 1036.5,-10 1016.5,-10"/>
<text text-anchor="start" x="1040.28" y="-15.4" font-family="Times-12" font-size="14.00"> &#160;Bootstrap</text>
<polygon fill="#fdb462" stroke="transparent" points="1113.5,-10 1113.5,-30 1133.5,-30 1133.5,-10 1113.5,-10"/>
<text text-anchor="start" x="1137.17" y="-15.4" font-family="Times-12" font-size="14.00"> &#160;Providers</text>
<polygon fill="#fb8072" stroke="transparent" points="1209.5,-10 1209.5,-30 1229.5,-30 1229.5,-10 1209.5,-10"/>
<text text-anchor="start" x="1233.23" y="-15.4" font-family="Times-12" font-size="14.00"> &#160;Exports</text>
<g id="clust1" class="cluster">
<title>cluster_AppModule</title>
<polygon fill="none" stroke="black" stroke-dasharray="1,5" points="8,-70 8,-268 2095,-268 2095,-70 8,-70"/>
</g>
<g id="clust2" class="cluster">
<title>cluster_AppModule_declarations</title>
<polygon fill="none" stroke="black" points="1965,-78 1965,-130 2087,-130 2087,-78 1965,-78"/>
</g>
<g id="clust7" class="cluster">
<title>cluster_AppModule_providers</title>
<polygon fill="none" stroke="black" points="1427,-78 1427,-130 1957,-130 1957,-78 1427,-78"/>
</g>
<g id="clust6" class="cluster">
<title>cluster_AppModule_bootstrap</title>
<polygon fill="none" stroke="black" points="855,-208 855,-260 979,-260 979,-208 855,-208"/>
</g>
<g id="clust4" class="cluster">
<title>cluster_AppModule_imports</title>
<polygon fill="none" stroke="black" points="16,-78 16,-130 1419,-130 1419,-78 16,-78"/>
</g>
<!-- AppComponent -->
<g id="node1" class="node">
<title>AppComponent</title>
<polygon fill="#ffffb3" stroke="black" points="2078.94,-122 1973.06,-122 1973.06,-86 2078.94,-86 2078.94,-122"/>
<text text-anchor="middle" x="2026" y="-99.8" font-family="Times,serif" font-size="14.00">AppComponent</text>
</g>
<!-- AppModule -->
<g id="node2" class="node">
<title>AppModule</title>
<polygon fill="#8dd3c7" stroke="black" points="958.66,-187 955.66,-191 934.66,-191 931.66,-187 875.34,-187 875.34,-151 958.66,-151 958.66,-187"/>
<text text-anchor="middle" x="917" y="-164.8" font-family="Times,serif" font-size="14.00">AppModule</text>
</g>
<!-- AppComponent&#45;&gt;AppModule -->
<g id="edge1" class="edge">
<title>AppComponent&#45;&gt;AppModule</title>
<path fill="none" stroke="black" d="M2026,-122.25C2026,-145.02 2026,-181 2026,-181 2026,-181 968.78,-181 968.78,-181"/>
<polygon fill="black" stroke="black" points="968.78,-177.5 958.78,-181 968.78,-184.5 968.78,-177.5"/>
</g>
<!-- AppComponent  -->
<g id="node12" class="node">
<title>AppComponent </title>
<polygon fill="#80b1d3" stroke="black" points="971.44,-252 862.56,-252 862.56,-216 971.44,-216 971.44,-252"/>
<text text-anchor="middle" x="917" y="-229.8" font-family="Times,serif" font-size="14.00">AppComponent </text>
</g>
<!-- AppModule&#45;&gt;AppComponent  -->
<g id="edge11" class="edge">
<title>AppModule&#45;&gt;AppComponent </title>
<path fill="none" stroke="black" stroke-dasharray="1,5" d="M917,-187.11C917,-187.11 917,-205.99 917,-205.99"/>
<polygon fill="black" stroke="black" points="913.5,-205.99 917,-215.99 920.5,-205.99 913.5,-205.99"/>
</g>
<!-- BrowserModule -->
<g id="node3" class="node">
<title>BrowserModule</title>
<polygon fill="#8dd3c7" stroke="black" points="1411.47,-122 1408.47,-126 1387.47,-126 1384.47,-122 1304.53,-122 1304.53,-86 1411.47,-86 1411.47,-122"/>
<text text-anchor="middle" x="1358" y="-99.8" font-family="Times,serif" font-size="14.00">BrowserModule</text>
</g>
<!-- BrowserModule&#45;&gt;AppModule -->
<g id="edge2" class="edge">
<title>BrowserModule&#45;&gt;AppModule</title>
<path fill="none" stroke="black" d="M1358,-122.11C1358,-141.34 1358,-169 1358,-169 1358,-169 968.89,-169 968.89,-169"/>
<polygon fill="black" stroke="black" points="968.89,-165.5 958.89,-169 968.89,-172.5 968.89,-165.5"/>
</g>
<!-- IonicModule.forRoot() -->
<g id="node4" class="node">
<title>IonicModule.forRoot()</title>
<polygon fill="#8dd3c7" stroke="black" points="1286.19,-122 1283.19,-126 1262.19,-126 1259.19,-122 1141.81,-122 1141.81,-86 1286.19,-86 1286.19,-122"/>
<text text-anchor="middle" x="1214" y="-99.8" font-family="Times,serif" font-size="14.00">IonicModule.forRoot()</text>
</g>
<!-- IonicModule.forRoot()&#45;&gt;AppModule -->
<g id="edge3" class="edge">
<title>IonicModule.forRoot()&#45;&gt;AppModule</title>
<path fill="none" stroke="black" d="M1214,-122.02C1214,-139.37 1214,-163 1214,-163 1214,-163 968.92,-163 968.92,-163"/>
<polygon fill="black" stroke="black" points="968.92,-159.5 958.92,-163 968.92,-166.5 968.92,-159.5"/>
</g>
<!-- AppRoutingModule -->
<g id="node5" class="node">
<title>AppRoutingModule</title>
<polygon fill="#8dd3c7" stroke="black" points="1123.27,-122 1120.27,-126 1099.27,-126 1096.27,-122 994.73,-122 994.73,-86 1123.27,-86 1123.27,-122"/>
<text text-anchor="middle" x="1059" y="-99.8" font-family="Times,serif" font-size="14.00">AppRoutingModule</text>
</g>
<!-- AppRoutingModule&#45;&gt;AppModule -->
<g id="edge4" class="edge">
<title>AppRoutingModule&#45;&gt;AppModule</title>
<path fill="none" stroke="black" d="M1059,-122.24C1059,-137.57 1059,-157 1059,-157 1059,-157 968.84,-157 968.84,-157"/>
<polygon fill="black" stroke="black" points="968.84,-153.5 958.84,-157 968.84,-160.5 968.84,-153.5"/>
</g>
<!-- HttpClientModule -->
<g id="node6" class="node">
<title>HttpClientModule</title>
<polygon fill="#8dd3c7" stroke="black" points="976.16,-122 973.16,-126 952.16,-126 949.16,-122 857.84,-122 857.84,-86 976.16,-86 976.16,-122"/>
<text text-anchor="middle" x="917" y="-99.8" font-family="Times,serif" font-size="14.00">HttpClientModule</text>
</g>
<!-- HttpClientModule&#45;&gt;AppModule -->
<g id="edge5" class="edge">
<title>HttpClientModule&#45;&gt;AppModule</title>
<path fill="none" stroke="black" d="M917,-122.11C917,-122.11 917,-140.99 917,-140.99"/>
<polygon fill="black" stroke="black" points="913.5,-140.99 917,-150.99 920.5,-140.99 913.5,-140.99"/>
</g>
<!-- BrowserAnimationsModule -->
<g id="node7" class="node">
<title>BrowserAnimationsModule</title>
<polygon fill="#8dd3c7" stroke="black" points="840.3,-122 837.3,-126 816.3,-126 813.3,-122 667.7,-122 667.7,-86 840.3,-86 840.3,-122"/>
<text text-anchor="middle" x="754" y="-99.8" font-family="Times,serif" font-size="14.00">BrowserAnimationsModule</text>
</g>
<!-- BrowserAnimationsModule&#45;&gt;AppModule -->
<g id="edge6" class="edge">
<title>BrowserAnimationsModule&#45;&gt;AppModule</title>
<path fill="none" stroke="black" d="M754,-122.24C754,-137.57 754,-157 754,-157 754,-157 865.02,-157 865.02,-157"/>
<polygon fill="black" stroke="black" points="865.02,-160.5 875.02,-157 865.02,-153.5 865.02,-160.5"/>
</g>
<!-- provideFirebaseApp.(args) -->
<g id="node8" class="node">
<title>provideFirebaseApp.(args)</title>
<polygon fill="#8dd3c7" stroke="black" points="650.44,-122 647.44,-126 626.44,-126 623.44,-122 483.56,-122 483.56,-86 650.44,-86 650.44,-122"/>
<text text-anchor="middle" x="567" y="-99.8" font-family="Times,serif" font-size="14.00">provideFirebaseApp.(args)</text>
</g>
<!-- provideFirebaseApp.(args)&#45;&gt;AppModule -->
<g id="edge7" class="edge">
<title>provideFirebaseApp.(args)&#45;&gt;AppModule</title>
<path fill="none" stroke="black" d="M567,-122.02C567,-139.37 567,-163 567,-163 567,-163 865.13,-163 865.13,-163"/>
<polygon fill="black" stroke="black" points="865.13,-166.5 875.13,-163 865.13,-159.5 865.13,-166.5"/>
</g>
<!-- provideAuth.(args) -->
<g id="node9" class="node">
<title>provideAuth.(args)</title>
<polygon fill="#8dd3c7" stroke="black" points="465.4,-122 462.4,-126 441.4,-126 438.4,-122 342.6,-122 342.6,-86 465.4,-86 465.4,-122"/>
<text text-anchor="middle" x="404" y="-99.8" font-family="Times,serif" font-size="14.00">provideAuth.(args)</text>
</g>
<!-- provideAuth.(args)&#45;&gt;AppModule -->
<g id="edge8" class="edge">
<title>provideAuth.(args)&#45;&gt;AppModule</title>
<path fill="none" stroke="black" d="M404,-122.11C404,-141.34 404,-169 404,-169 404,-169 865.02,-169 865.02,-169"/>
<polygon fill="black" stroke="black" points="865.02,-172.5 875.02,-169 865.02,-165.5 865.02,-172.5"/>
</g>
<!-- provideFirestore.(args) -->
<g id="node10" class="node">
<title>provideFirestore.(args)</title>
<polygon fill="#8dd3c7" stroke="black" points="324.17,-122 321.17,-126 300.17,-126 297.17,-122 179.83,-122 179.83,-86 324.17,-86 324.17,-122"/>
<text text-anchor="middle" x="252" y="-99.8" font-family="Times,serif" font-size="14.00">provideFirestore.(args)</text>
</g>
<!-- provideFirestore.(args)&#45;&gt;AppModule -->
<g id="edge9" class="edge">
<title>provideFirestore.(args)&#45;&gt;AppModule</title>
<path fill="none" stroke="black" d="M252,-122.28C252,-143.32 252,-175 252,-175 252,-175 865.15,-175 865.15,-175"/>
<polygon fill="black" stroke="black" points="865.15,-178.5 875.15,-175 865.15,-171.5 865.15,-178.5"/>
</g>
<!-- provideStorage.(args) -->
<g id="node11" class="node">
<title>provideStorage.(args)</title>
<polygon fill="#8dd3c7" stroke="black" points="161.67,-122 158.67,-126 137.67,-126 134.67,-122 24.33,-122 24.33,-86 161.67,-86 161.67,-122"/>
<text text-anchor="middle" x="93" y="-99.8" font-family="Times,serif" font-size="14.00">provideStorage.(args)</text>
</g>
<!-- provideStorage.(args)&#45;&gt;AppModule -->
<g id="edge10" class="edge">
<title>provideStorage.(args)&#45;&gt;AppModule</title>
<path fill="none" stroke="black" d="M93,-122.25C93,-145.02 93,-181 93,-181 93,-181 865.29,-181 865.29,-181"/>
<polygon fill="black" stroke="black" points="865.29,-184.5 875.29,-181 865.29,-177.5 865.29,-184.5"/>
</g>
<!-- { provide: RouteReuseStrategy, useClass: IonicRouteStrategy } -->
<g id="node13" class="node">
<title>{ provide: RouteReuseStrategy, useClass: IonicRouteStrategy }</title>
<ellipse fill="#fdb462" stroke="black" cx="1692" cy="-104" rx="257.27" ry="18"/>
<text text-anchor="middle" x="1692" y="-99.8" font-family="Times,serif" font-size="14.00">{ provide: RouteReuseStrategy, useClass: IonicRouteStrategy }</text>
</g>
<!-- { provide: RouteReuseStrategy, useClass: IonicRouteStrategy }&#45;&gt;AppModule -->
<g id="edge12" class="edge">
<title>{ provide: RouteReuseStrategy, useClass: IonicRouteStrategy }&#45;&gt;AppModule</title>
<path fill="none" stroke="black" d="M1692,-122.28C1692,-143.32 1692,-175 1692,-175 1692,-175 968.67,-175 968.67,-175"/>
<polygon fill="black" stroke="black" points="968.67,-171.5 958.67,-175 968.67,-178.5 968.67,-171.5"/>
</g>
</g>
</svg>
