<?xml version="1.0" encoding="UTF-8" standalone="no"?>
<!DOCTYPE svg PUBLIC "-//W3C//DTD SVG 1.1//EN"
 "http://www.w3.org/Graphics/SVG/1.1/DTD/svg11.dtd">
<!-- Generated by graphviz version 2.47.0 (20210316.0004)
 -->
<!-- Title: dependencies Pages: 1 -->
<svg width="906pt" height="211pt"
 viewBox="0.00 0.00 906.00 211.00" xmlns="http://www.w3.org/2000/svg" xmlns:xlink="http://www.w3.org/1999/xlink">
<g id="graph0" class="graph" transform="scale(1 1) rotate(0) translate(4 207)">
<title>dependencies</title>
<polygon fill="white" stroke="transparent" points="-4,4 -4,-207 902,-207 902,4 -4,4"/>
<text text-anchor="start" x="428.01" y="-42.4" font-family="Times-12" font-weight="bold" font-size="14.00">Legend</text>
<polygon fill="#ffffb3" stroke="transparent" points="215,-10 215,-30 235,-30 235,-10 215,-10"/>
<text text-anchor="start" x="238.63" y="-15.4" font-family="Times-12" font-size="14.00"> &#160;Declarations</text>
<polygon fill="#8dd3c7" stroke="transparent" points="328,-10 328,-30 348,-30 348,-10 328,-10"/>
<text text-anchor="start" x="351.73" y="-15.4" font-family="Times-12" font-size="14.00"> &#160;Module</text>
<polygon fill="#80b1d3" stroke="transparent" points="414,-10 414,-30 434,-30 434,-10 414,-10"/>
<text text-anchor="start" x="437.78" y="-15.4" font-family="Times-12" font-size="14.00"> &#160;Bootstrap</text>
<polygon fill="#fdb462" stroke="transparent" points="511,-10 511,-30 531,-30 531,-10 511,-10"/>
<text text-anchor="start" x="534.67" y="-15.4" font-family="Times-12" font-size="14.00"> &#160;Providers</text>
<polygon fill="#fb8072" stroke="transparent" points="607,-10 607,-30 627,-30 627,-10 607,-10"/>
<text text-anchor="start" x="630.73" y="-15.4" font-family="Times-12" font-size="14.00"> &#160;Exports</text>
<g id="clust1" class="cluster">
<title>cluster_AdminCreateRecipeModalPageModule</title>
<polygon fill="none" stroke="black" stroke-dasharray="1,5" points="8,-70 8,-195 890,-195 890,-70 8,-70"/>
</g>
<g id="clust2" class="cluster">
<title>cluster_AdminCreateRecipeModalPageModule_declarations</title>
<polygon fill="none" stroke="black" points="672,-78 672,-130 882,-130 882,-78 672,-78"/>
</g>
<g id="clust4" class="cluster">
<title>cluster_AdminCreateRecipeModalPageModule_imports</title>
<polygon fill="none" stroke="black" points="16,-78 16,-130 664,-130 664,-78 16,-78"/>
</g>
<!-- AdminCreateRecipeModalPage -->
<g id="node1" class="node">
<title>AdminCreateRecipeModalPage</title>
<polygon fill="#ffffb3" stroke="black" points="874.05,-122 679.95,-122 679.95,-86 874.05,-86 874.05,-122"/>
<text text-anchor="middle" x="777" y="-99.8" font-family="Times,serif" font-size="14.00">AdminCreateRecipeModalPage</text>
</g>
<!-- AdminCreateRecipeModalPageModule -->
<g id="node2" class="node">
<title>AdminCreateRecipeModalPageModule</title>
<polygon fill="#8dd3c7" stroke="black" points="597.6,-187 594.6,-191 573.6,-191 570.6,-187 360.4,-187 360.4,-151 597.6,-151 597.6,-187"/>
<text text-anchor="middle" x="479" y="-164.8" font-family="Times,serif" font-size="14.00">AdminCreateRecipeModalPageModule</text>
</g>
<!-- AdminCreateRecipeModalPage&#45;&gt;AdminCreateRecipeModalPageModule -->
<g id="edge1" class="edge">
<title>AdminCreateRecipeModalPage&#45;&gt;AdminCreateRecipeModalPageModule</title>
<path fill="none" stroke="black" d="M777,-122.11C777,-141.34 777,-169 777,-169 777,-169 607.63,-169 607.63,-169"/>
<polygon fill="black" stroke="black" points="607.63,-165.5 597.63,-169 607.63,-172.5 607.63,-165.5"/>
</g>
<!-- CommonModule -->
<g id="node3" class="node">
<title>CommonModule</title>
<polygon fill="#8dd3c7" stroke="black" points="655.67,-122 652.67,-126 631.67,-126 628.67,-122 544.33,-122 544.33,-86 655.67,-86 655.67,-122"/>
<text text-anchor="middle" x="600" y="-99.8" font-family="Times,serif" font-size="14.00">CommonModule</text>
</g>
<!-- CommonModule&#45;&gt;AdminCreateRecipeModalPageModule -->
<g id="edge2" class="edge">
<title>CommonModule&#45;&gt;AdminCreateRecipeModalPageModule</title>
<path fill="none" stroke="black" d="M570.98,-122.11C570.98,-122.11 570.98,-140.99 570.98,-140.99"/>
<polygon fill="black" stroke="black" points="567.48,-140.99 570.98,-150.99 574.48,-140.99 567.48,-140.99"/>
</g>
<!-- FormsModule -->
<g id="node4" class="node">
<title>FormsModule</title>
<polygon fill="#8dd3c7" stroke="black" points="526.83,-122 523.83,-126 502.83,-126 499.83,-122 431.17,-122 431.17,-86 526.83,-86 526.83,-122"/>
<text text-anchor="middle" x="479" y="-99.8" font-family="Times,serif" font-size="14.00">FormsModule</text>
</g>
<!-- FormsModule&#45;&gt;AdminCreateRecipeModalPageModule -->
<g id="edge3" class="edge">
<title>FormsModule&#45;&gt;AdminCreateRecipeModalPageModule</title>
<path fill="none" stroke="black" d="M479,-122.11C479,-122.11 479,-140.99 479,-140.99"/>
<polygon fill="black" stroke="black" points="475.5,-140.99 479,-150.99 482.5,-140.99 475.5,-140.99"/>
</g>
<!-- IonicModule -->
<g id="node5" class="node">
<title>IonicModule</title>
<polygon fill="#8dd3c7" stroke="black" points="413.32,-122 410.32,-126 389.32,-126 386.32,-122 324.68,-122 324.68,-86 413.32,-86 413.32,-122"/>
<text text-anchor="middle" x="369" y="-99.8" font-family="Times,serif" font-size="14.00">IonicModule</text>
</g>
<!-- IonicModule&#45;&gt;AdminCreateRecipeModalPageModule -->
<g id="edge4" class="edge">
<title>IonicModule&#45;&gt;AdminCreateRecipeModalPageModule</title>
<path fill="none" stroke="black" d="M386.68,-122.11C386.68,-122.11 386.68,-140.99 386.68,-140.99"/>
<polygon fill="black" stroke="black" points="383.18,-140.99 386.68,-150.99 390.18,-140.99 383.18,-140.99"/>
</g>
<!-- AdminCreateRecipeModalPageRoutingModule -->
<g id="node6" class="node">
<title>AdminCreateRecipeModalPageRoutingModule</title>
<polygon fill="#8dd3c7" stroke="black" points="306.22,-122 303.22,-126 282.22,-126 279.22,-122 23.78,-122 23.78,-86 306.22,-86 306.22,-122"/>
<text text-anchor="middle" x="165" y="-99.8" font-family="Times,serif" font-size="14.00">AdminCreateRecipeModalPageRoutingModule</text>
</g>
<!-- AdminCreateRecipeModalPageRoutingModule&#45;&gt;AdminCreateRecipeModalPageModule -->
<g id="edge5" class="edge">
<title>AdminCreateRecipeModalPageRoutingModule&#45;&gt;AdminCreateRecipeModalPageModule</title>
<path fill="none" stroke="black" d="M165,-122.11C165,-141.34 165,-169 165,-169 165,-169 350.29,-169 350.29,-169"/>
<polygon fill="black" stroke="black" points="350.29,-172.5 360.29,-169 350.29,-165.5 350.29,-172.5"/>
</g>
</g>
</svg>
